RecursiveTrio-TextSemiBoldv0.0.4.ufo
<glyph name="B" format="2">
  <advance width="600.0"/>
  <unicode hex="0042"/>
  <outline>
    <contour>
      <point x="30.0" y="700.0" type="curve"/>
      <point x="30.0" y="678.0" type="line" smooth="yes"/>
      <point x="30.0" y="636.2"/>
      <point x="34.599999999999994" y="593.4"/>
      <point x="50.6" y="577.4" type="curve" smooth="yes"/>
      <point x="56.2" y="571.8"/>
      <point x="59.8" y="570.0"/>
      <point x="67.0" y="570.0" type="curve" smooth="yes"/>
      <point x="76.4" y="570.0"/>
      <point x="87.0" y="571.8"/>
      <point x="114.0" y="577.8" type="curve" smooth="yes"/>
      <point x="156.57230143649522" y="586.8386611193905"/>
      <point x="211.15828220858896" y="590.0"/>
      <point x="318.0" y="590.0" type="curve" smooth="yes"/>
      <point x="386.6" y="590.0"/>
      <point x="426.2990831021105" y="582.7272973923087"/>
      <point x="472.2" y="553.2" type="curve"/>
      <point x="495.8" y="576.8"/>
      <point x="495.2" y="633.2"/>
      <point x="475.4" y="653.0" type="curve" smooth="yes"/>
      <point x="423.6782561442393" y="704.7217438557607"/>
      <point x="380.4" y="720.0"/>
      <point x="299.6" y="720.0" type="curve" smooth="yes"/>
      <point x="203.26511627906976" y="720.0"/>
      <point x="120.57478528103914" y="714.3177815394776"/>
    </contour>
    <contour>
      <point x="218.0" y="25.200000000000003" type="line"/>
      <point x="218.0" y="227.8"/>
      <point x="218.0" y="422.8"/>
      <point x="218.0" y="625.4" type="curve" smooth="yes"/>
      <point x="218.0" y="632.8"/>
      <point x="216.0" y="636.0"/>
      <point x="210.60000000000002" y="641.4" type="curve" smooth="yes"/>
      <point x="197.8" y="654.2"/>
      <point x="143.6" y="666.0"/>
      <point x="102.0" y="666.0" type="curve" smooth="yes"/>
      <point x="80.0" y="666.0" type="line"/>
      <point x="80.0" y="513.4"/>
      <point x="80.0" y="383.6"/>
      <point x="80.0" y="231.0" type="curve" smooth="yes"/>
      <point x="80.0" y="176.8"/>
      <point x="80.0" y="128.0"/>
      <point x="80.0" y="73.80000000000001" type="curve" smooth="yes"/>
      <point x="80.0" y="45.6"/>
      <point x="146.4" y="25.200000000000003"/>
      <point x="196.0" y="25.200000000000003" type="curve" smooth="yes"/>
    </contour>
    <contour>
      <point x="537.0" y="481.4" type="curve" smooth="yes"/>
      <point x="537.0" y="522.0" type="line" smooth="yes"/>
      <point x="537.0" y="568.2"/>
      <point x="521.4" y="609.4"/>
      <point x="475.4" y="653.0" type="curve" smooth="yes"/>
      <point x="434.8" y="691.2"/>
      <point x="379.4" y="693.2"/>
      <point x="340.2" y="659.6" type="curve"/>
      <point x="389.4" y="621.2"/>
      <point x="407.0" y="582.2"/>
      <point x="407.0" y="508.0" type="curve" smooth="yes"/>
      <point x="407.0" y="475.4" type="line" smooth="yes"/>
      <point x="407.0" y="406.4"/>
      <point x="344.0" y="377.0"/>
      <point x="252.8" y="377.0" type="curve" smooth="yes"/>
      <point x="216.0" y="377.0"/>
      <point x="204.8" y="380.8"/>
      <point x="182.0" y="393.8" type="curve"/>
      <point x="171.6" y="383.8"/>
      <point x="167.2" y="368.4"/>
      <point x="167.2" y="352.8" type="curve" smooth="yes"/>
      <point x="167.2" y="314.2"/>
      <point x="206.6" y="275.0"/>
      <point x="254.6" y="275.0" type="curve" smooth="yes"/>
      <point x="407.8" y="275.0"/>
      <point x="537.0" y="348.8"/>
    </contour>
    <contour>
      <point x="520.8" y="181.4" type="curve" smooth="yes"/>
      <point x="520.8" y="206.0" type="line" smooth="yes"/>
      <point x="520.8" y="251.6"/>
      <point x="504.0" y="291.2"/>
      <point x="457.2" y="329.4" type="curve" smooth="yes"/>
      <point x="422.0" y="360.4"/>
      <point x="379.6" y="352.2"/>
      <point x="348.0" y="333.4" type="curve"/>
      <point x="385.0" y="298.8"/>
      <point x="390.8" y="269.0"/>
      <point x="390.8" y="224.0" type="curve" smooth="yes"/>
      <point x="390.8" y="191.4" type="line" smooth="yes"/>
      <point x="390.8" y="141.0"/>
      <point x="333.2" y="116.0"/>
      <point x="254.2" y="116.0" type="curve" smooth="yes"/>
      <point x="182.2" y="116.0"/>
      <point x="143.6" y="122.2"/>
      <point x="96.8" y="136.60000000000002" type="curve"/>
      <point x="82.8" y="120.60000000000001"/>
      <point x="80.0" y="95.2"/>
      <point x="80.0" y="73.80000000000001" type="curve" smooth="yes"/>
      <point x="80.0" y="32.2"/>
      <point x="168.0" y="-10.0"/>
      <point x="258.2" y="-10.0" type="curve" smooth="yes"/>
      <point x="393.4" y="-10.0"/>
      <point x="520.8" y="61.0"/>
    </contour>
  </outline>
</glyph>
<glyph name="C" format="2">
  <advance width="600.0"/>
  <unicode hex="0043"/>
  <outline>
    <contour>
      <point x="525.0" y="403.8" type="line"/>
      <point x="525.0" y="567.6" type="line" smooth="yes"/>
      <point x="525.0" y="602.8"/>
      <point x="513.4" y="634.4"/>
      <point x="479.2" y="668.6" type="curve" smooth="yes"/>
      <point x="441.6" y="706.2"/>
      <point x="402.6" y="705.2"/>
      <point x="377.8" y="676.0" type="curve"/>
      <point x="386.4" y="663.2"/>
      <point x="395.0" y="625.4"/>
      <point x="395.0" y="598.2" type="curve" smooth="yes"/>
      <point x="395.0" y="452.4" type="line" smooth="yes"/>
      <point x="395.0" y="445.8"/>
      <point x="396.2" y="442.6"/>
      <point x="402.4" y="436.4" type="curve" smooth="yes"/>
      <point x="424.0" y="414.8"/>
      <point x="459.0" y="403.8"/>
      <point x="503.0" y="403.8" type="curve" smooth="yes"/>
    </contour>
    <contour>
      <point x="380.0" y="720.0" type="curve" smooth="yes"/>
      <point x="206.0" y="720.0"/>
      <point x="71.0" y="493.0"/>
      <point x="71.0" y="255.4" type="curve" smooth="yes"/>
      <point x="71.0" y="243.2" type="line" smooth="yes"/>
      <point x="71.0" y="184.3895652173913"/>
      <point x="132.6" y="127.4"/>
      <point x="214.60000000000002" y="124.0" type="curve"/>
      <point x="205.6282851254991" y="150.90848929985583"/>
      <point x="198.2" y="194.4"/>
      <point x="198.2" y="235.6" type="curve"/>
      <point x="198.2" y="246.2" type="line"/>
      <point x="198.2" y="423.4"/>
      <point x="293.4" y="590.8"/>
      <point x="381.6" y="590.8" type="curve" smooth="yes"/>
      <point x="404.4" y="590.8"/>
      <point x="427.2" y="586.8"/>
      <point x="454.4" y="571.6" type="curve"/>
      <point x="499.2" y="593.2"/>
      <point x="508.8" y="639.0"/>
      <point x="479.2" y="668.6" type="curve"/>
      <point x="450.4" y="697.4"/>
      <point x="419.0" y="720.0"/>
    </contour>
    <contour>
      <point x="328.2" y="-20.0" type="curve" smooth="yes"/>
      <point x="450.00089686098653" y="-20.0"/>
      <point x="549.8" y="32.2"/>
      <point x="549.8" y="84.8" type="curve" smooth="yes"/>
      <point x="549.8" y="129.6"/>
      <point x="549.8" y="171.0"/>
      <point x="549.8" y="193.4" type="curve"/>
      <point x="527.6" y="193.4" type="line"/>
      <point x="479.1585806991665" y="132.98385222591995"/>
      <point x="415.8716981132075" y="110.0"/>
      <point x="328.2" y="110.0" type="curve" smooth="yes"/>
      <point x="222.9764705882353" y="110.0"/>
      <point x="183.60000000000002" y="156.91650485436892"/>
      <point x="183.60000000000002" y="294.8" type="curve"/>
      <point x="116.2" y="295.6"/>
      <point x="71.0" y="282.6"/>
      <point x="71.0" y="253.0" type="curve" smooth="yes"/>
      <point x="71.0" y="243.2" type="line" smooth="yes"/>
      <point x="71.0" y="97.09158878504672"/>
      <point x="158.44601769911503" y="-20.0"/>
    </contour>
  </outline>
</glyph>
<glyph name="D" format="2">
  <advance width="600.0"/>
  <unicode hex="0044"/>
  <outline>
    <contour>
      <point x="30.0" y="700.0" type="curve"/>
      <point x="30.0" y="678.0" type="line" smooth="yes"/>
      <point x="30.0" y="636.2"/>
      <point x="34.599999999999994" y="593.4"/>
      <point x="50.6" y="577.4" type="curve" smooth="yes"/>
      <point x="56.2" y="571.8"/>
      <point x="59.8" y="570.0"/>
      <point x="67.0" y="570.0" type="curve" smooth="yes"/>
      <point x="76.4" y="570.0"/>
      <point x="87.0" y="571.8"/>
      <point x="114.0" y="577.8" type="curve" smooth="yes"/>
      <point x="152.5845758364147" y="585.9569187591067"/>
      <point x="201.579705400982" y="590.0"/>
      <point x="298.0" y="590.0" type="curve" smooth="yes"/>
      <point x="368.1213114754098" y="590.0"/>
      <point x="407.44954798643965" y="580.5521036131083"/>
      <point x="455.4" y="549.0" type="curve"/>
      <point x="477.7567347135079" y="571.3567347135079"/>
      <point x="477.5512925693544" y="630.8487074306456"/>
      <point x="457.4" y="651.0" type="curve" smooth="yes"/>
      <point x="404.65259166856606" y="703.7474083314339"/>
      <point x="361.3988165680473" y="720.0"/>
      <point x="279.6" y="720.0" type="curve" smooth="yes"/>
      <point x="190.32503008423586" y="720.0"/>
      <point x="114.01608897078579" y="713.3523108738319"/>
    </contour>
    <contour>
      <point x="218.0" y="33.8" type="curve"/>
      <point x="218.0" y="230.60000000000002"/>
      <point x="218.0" y="428.5036927621861"/>
      <point x="218.0" y="625.4" type="curve" smooth="yes"/>
      <point x="218.0" y="632.8"/>
      <point x="216.0" y="636.0"/>
      <point x="210.60000000000002" y="641.4" type="curve" smooth="yes"/>
      <point x="197.8" y="654.2"/>
      <point x="143.6" y="666.0"/>
      <point x="102.0" y="666.0" type="curve" smooth="yes"/>
      <point x="80.0" y="666.0" type="line"/>
      <point x="80.0" y="513.0"/>
      <point x="80.0" y="382.0"/>
      <point x="80.0" y="229.0" type="curve" smooth="yes"/>
      <point x="80.0" y="181.25146094215862"/>
      <point x="80.0" y="131.93333333333334"/>
      <point x="80.0" y="83.80000000000001" type="curve" smooth="yes"/>
      <point x="80.0" y="54.400000000000006"/>
      <point x="146.2" y="33.8"/>
    </contour>
    <contour>
      <point x="537.0" y="313.4" type="curve" smooth="yes"/>
      <point x="537.0" y="418.0" type="line" smooth="yes"/>
      <point x="537.0" y="500.4677966101695"/>
      <point x="530.487963445122" y="577.9120365548781"/>
      <point x="457.4" y="651.0" type="curve" smooth="yes"/>
      <point x="418.1888086263483" y="690.2111913736517"/>
      <point x="361.03553766232517" y="692.6355376623252"/>
      <point x="320.6" y="657.8" type="curve"/>
      <point x="395.58427578462516" y="599.0027664175253"/>
      <point x="407.0" y="528.0946808510638"/>
      <point x="407.0" y="404.0" type="curve" smooth="yes"/>
      <point x="407.0" y="307.4" type="line" smooth="yes"/>
      <point x="407.0" y="189.0"/>
      <point x="343.0553191489362" y="124.0"/>
      <point x="242.0" y="124.0" type="curve" smooth="yes"/>
      <point x="176.36455696202535" y="124.0"/>
      <point x="151.64742268041238" y="129.2"/>
      <point x="93.8" y="152.0" type="curve"/>
      <point x="83.93887755965149" y="137.5006760344337"/>
      <point x="80.0" y="110.105329153605"/>
      <point x="80.0" y="83.80000000000001" type="curve" smooth="yes"/>
      <point x="80.0" y="43.728"/>
      <point x="167.6" y="-10.0"/>
      <point x="247.0" y="-10.0" type="curve" smooth="yes"/>
      <point x="412.0" y="-10.0"/>
      <point x="537.0" y="102.6"/>
    </contour>
  </outline>
</glyph>
<glyph name="E" format="2">
  <advance width="600.0"/>
  <unicode hex="0045"/>
  <outline>
    <contour>
      <point x="30.0" y="700.0" type="curve"/>
      <point x="30.0" y="678.0" type="line" smooth="yes"/>
      <point x="30.0" y="636.4"/>
      <point x="35.4" y="592.6"/>
      <point x="50.6" y="577.4" type="curve" smooth="yes"/>
      <point x="56.0" y="572.0"/>
      <point x="59.2" y="570.0"/>
      <point x="66.6" y="570.0" type="curve"/>
      <point x="119.28837209302326" y="570.0"/>
      <point x="180.31162790697675" y="570.0"/>
      <point x="233.0" y="570.0" type="curve" smooth="yes"/>
      <point x="315.2" y="570.0"/>
      <point x="463.8" y="570.0"/>
      <point x="546.0" y="570.0" type="curve"/>
      <point x="546.0" y="592.0" type="line" smooth="yes"/>
      <point x="546.0" y="615.2"/>
      <point x="526.2" y="663.8"/>
      <point x="497.4" y="692.6" type="curve" smooth="yes"/>
      <point x="492.0" y="698.0"/>
      <point x="488.8" y="700.0"/>
      <point x="481.4" y="700.0" type="curve" smooth="yes"/>
      <point x="351.23478260869564" y="700.0"/>
      <point x="160.16521739130434" y="700.0"/>
    </contour>
    <contour>
      <point x="218.0" y="71.4" type="line"/>
      <point x="218.0" y="281.0"/>
      <point x="218.0" y="413.8"/>
      <point x="218.0" y="623.4" type="curve" smooth="yes"/>
      <point x="218.0" y="630.8"/>
      <point x="216.0" y="634.0"/>
      <point x="210.60000000000002" y="639.4" type="curve" smooth="yes"/>
      <point x="197.8" y="652.2"/>
      <point x="143.6" y="664.0"/>
      <point x="102.0" y="664.0" type="curve" smooth="yes"/>
      <point x="80.0" y="664.0" type="line"/>
      <point x="80.0" y="559.4"/>
      <point x="80.0" y="453.6"/>
      <point x="80.0" y="349.0" type="curve" smooth="yes"/>
      <point x="80.0" y="248.2"/>
      <point x="80.0" y="220.8"/>
      <point x="80.0" y="120.0" type="curve" smooth="yes"/>
      <point x="80.0" y="112.60000000000001"/>
      <point x="82.0" y="109.4"/>
      <point x="87.4" y="104.0" type="curve" smooth="yes"/>
      <point x="109.8" y="81.6"/>
      <point x="154.4" y="71.4"/>
      <point x="196.0" y="71.4" type="curve" smooth="yes"/>
    </contour>
    <contour>
      <point x="140.0" y="390.0" type="curve"/>
      <point x="140.0" y="368.0" type="line" smooth="yes"/>
      <point x="140.0" y="326.4"/>
      <point x="150.2" y="305.8"/>
      <point x="172.6" y="283.4" type="curve" smooth="yes"/>
      <point x="178.0" y="278.0"/>
      <point x="181.2" y="276.0"/>
      <point x="188.6" y="276.0" type="curve"/>
      <point x="236.0" y="276.0"/>
      <point x="201.6" y="276.0"/>
      <point x="249.0" y="276.0" type="curve" smooth="yes"/>
      <point x="324.8" y="276.0"/>
      <point x="414.2" y="276.0"/>
      <point x="490.0" y="276.0" type="curve"/>
      <point x="490.0" y="298.0" type="line" smooth="yes"/>
      <point x="490.0" y="321.2"/>
      <point x="478.2" y="353.8"/>
      <point x="449.4" y="382.6" type="curve" smooth="yes"/>
      <point x="444.0" y="388.0"/>
      <point x="440.8" y="390.0"/>
      <point x="433.4" y="390.0" type="curve" smooth="yes"/>
      <point x="315.0" y="390.0"/>
      <point x="258.4" y="390.0"/>
    </contour>
    <contour>
      <point x="80.0" y="130.0" type="curve"/>
      <point x="80.0" y="108.0" type="line" smooth="yes"/>
      <point x="80.0" y="66.4"/>
      <point x="90.2" y="29.8"/>
      <point x="112.6" y="7.4" type="curve" smooth="yes"/>
      <point x="118.0" y="2.0"/>
      <point x="121.2" y="0.0"/>
      <point x="128.6" y="0.0" type="curve"/>
      <point x="177.4" y="0.0"/>
      <point x="144.2" y="0.0"/>
      <point x="193.0" y="0.0" type="curve" smooth="yes"/>
      <point x="273.62077922077924" y="0.0"/>
      <point x="465.37922077922076" y="0.0"/>
      <point x="546.0" y="0.0" type="curve"/>
      <point x="546.0" y="22.0" type="line" smooth="yes"/>
      <point x="546.0" y="45.2"/>
      <point x="526.2" y="93.80000000000001"/>
      <point x="497.4" y="122.60000000000001" type="curve" smooth="yes"/>
      <point x="492.0" y="128.0"/>
      <point x="488.8" y="130.0"/>
      <point x="481.4" y="130.0" type="curve" smooth="yes"/>
      <point x="357.50243902439024" y="130.0"/>
      <point x="203.89756097560976" y="130.0"/>
    </contour>
  </outline>
</glyph>
<glyph name="F" format="2">
  <advance width="600.0"/>
  <unicode hex="0046"/>
  <outline>
    <contour>
      <point x="218.0" y="-10.0" type="line"/>
      <point x="218.0" y="200.84875"/>
      <point x="218.0" y="412.55125"/>
      <point x="218.0" y="623.4" type="curve" smooth="yes"/>
      <point x="218.0" y="630.8"/>
      <point x="216.0" y="634.0"/>
      <point x="210.60000000000002" y="639.4" type="curve" smooth="yes"/>
      <point x="197.8" y="652.2"/>
      <point x="143.6" y="664.0"/>
      <point x="102.0" y="664.0" type="curve" smooth="yes"/>
      <point x="80.0" y="664.0" type="line"/>
      <point x="80.0" y="559.4"/>
      <point x="80.0" y="453.6"/>
      <point x="80.0" y="349.0" type="curve" smooth="yes"/>
      <point x="80.0" y="246.41241379310344"/>
      <point x="80.0" y="141.18758620689655"/>
      <point x="80.0" y="38.6" type="curve" smooth="yes"/>
      <point x="80.0" y="31.200000000000003"/>
      <point x="82.0" y="28.0"/>
      <point x="87.4" y="22.6" type="curve" smooth="yes"/>
      <point x="109.8" y="0.20000000000000018"/>
      <point x="154.4" y="-10.0"/>
      <point x="196.0" y="-10.0" type="curve" smooth="yes"/>
    </contour>
    <contour>
      <point x="30.0" y="700.0" type="curve"/>
      <point x="30.0" y="678.0" type="line" smooth="yes"/>
      <point x="30.0" y="636.4"/>
      <point x="35.4" y="592.6"/>
      <point x="50.6" y="577.4" type="curve" smooth="yes"/>
      <point x="56.0" y="572.0"/>
      <point x="59.2" y="570.0"/>
      <point x="66.6" y="570.0" type="curve"/>
      <point x="119.28837209302326" y="570.0"/>
      <point x="180.31162790697675" y="570.0"/>
      <point x="233.0" y="570.0" type="curve" smooth="yes"/>
      <point x="315.2" y="570.0"/>
      <point x="463.8" y="570.0"/>
      <point x="546.0" y="570.0" type="curve"/>
      <point x="546.0" y="592.0" type="line" smooth="yes"/>
      <point x="546.0" y="615.2"/>
      <point x="526.2" y="663.8"/>
      <point x="497.4" y="692.6" type="curve" smooth="yes"/>
      <point x="492.0" y="698.0"/>
      <point x="488.8" y="700.0"/>
      <point x="481.4" y="700.0" type="curve" smooth="yes"/>
      <point x="351.23478260869564" y="700.0"/>
      <point x="160.16521739130434" y="700.0"/>
    </contour>
    <contour>
      <point x="116.0" y="340.0" type="curve"/>
      <point x="116.0" y="318.0" type="line" smooth="yes"/>
      <point x="116.0" y="276.4"/>
      <point x="126.2" y="239.8"/>
      <point x="148.6" y="217.4" type="curve" smooth="yes"/>
      <point x="154.0" y="212.0"/>
      <point x="157.2" y="210.0"/>
      <point x="164.6" y="210.0" type="curve"/>
      <point x="212.0" y="210.0"/>
      <point x="177.6" y="210.0"/>
      <point x="225.0" y="210.0" type="curve" smooth="yes"/>
      <point x="304.04324324324324" y="210.0"/>
      <point x="418.95675675675676" y="210.0"/>
      <point x="498.0" y="210.0" type="curve"/>
      <point x="498.0" y="232.0" type="line" smooth="yes"/>
      <point x="498.0" y="255.2"/>
      <point x="478.2" y="303.8"/>
      <point x="449.4" y="332.6" type="curve" smooth="yes"/>
      <point x="444.0" y="338.0"/>
      <point x="440.8" y="340.0"/>
      <point x="433.4" y="340.0" type="curve" smooth="yes"/>
      <point x="311.87296416938113" y="340.0"/>
      <point x="237.5270358306189" y="340.0"/>
    </contour>
  </outline>
</glyph>
<glyph name="G" format="2">
  <advance width="600.0"/>
  <unicode hex="0047"/>
  <outline>
    <contour>
      <point x="525.0" y="455.4" type="line"/>
      <point x="525.0" y="567.6" type="line" smooth="yes"/>
      <point x="525.0" y="602.8"/>
      <point x="513.4" y="634.4"/>
      <point x="479.2" y="668.6" type="curve" smooth="yes"/>
      <point x="441.6" y="706.2"/>
      <point x="402.6" y="705.2"/>
      <point x="377.8" y="676.0" type="curve"/>
      <point x="386.4" y="663.2"/>
      <point x="395.0" y="625.4"/>
      <point x="395.0" y="598.2" type="curve" smooth="yes"/>
      <point x="395.0" y="504.0" type="line" smooth="yes"/>
      <point x="395.0" y="497.4"/>
      <point x="396.2" y="494.2"/>
      <point x="402.4" y="488.0" type="curve" smooth="yes"/>
      <point x="424.0" y="466.4"/>
      <point x="459.0" y="455.4"/>
      <point x="503.0" y="455.4" type="curve" smooth="yes"/>
    </contour>
    <contour>
      <point x="377.2" y="720.0" type="curve" smooth="yes"/>
      <point x="205.2" y="720.0"/>
      <point x="71.0" y="591.4"/>
      <point x="71.0" y="339.4" type="curve" smooth="yes"/>
      <point x="71.0" y="243.2" type="line" smooth="yes"/>
      <point x="71.0" y="184.4"/>
      <point x="132.6" y="127.4"/>
      <point x="214.60000000000002" y="124.0" type="curve"/>
      <point x="205.60000000000002" y="151.0"/>
      <point x="198.2" y="194.4"/>
      <point x="198.2" y="235.6" type="curve" smooth="yes"/>
      <point x="198.2" y="332.8" type="line" smooth="yes"/>
      <point x="198.2" y="518.8"/>
      <point x="292.0" y="598.8"/>
      <point x="378.8" y="598.8" type="curve" smooth="yes"/>
      <point x="404.4" y="598.8"/>
      <point x="427.2" y="594.8"/>
      <point x="454.4" y="579.6" type="curve"/>
      <point x="499.2" y="601.2"/>
      <point x="508.8" y="639.0"/>
      <point x="479.2" y="668.6" type="curve"/>
      <point x="450.4" y="697.4"/>
      <point x="419.0" y="720.0"/>
    </contour>
    <contour>
      <point x="328.2" y="-20.0" type="curve" smooth="yes"/>
      <point x="440.2" y="-20.0"/>
      <point x="532.6" y="45.8"/>
      <point x="532.6" y="127.4" type="curve" smooth="yes"/>
      <point x="532.6" y="178.4"/>
      <point x="515.6" y="229.6"/>
      <point x="494.8" y="250.4" type="curve" smooth="yes"/>
      <point x="486.4" y="258.8"/>
      <point x="467.6" y="266.6"/>
      <point x="452.8" y="266.6" type="curve"/>
      <point x="457.2" y="253.2"/>
      <point x="458.6" y="241.0"/>
      <point x="458.6" y="222.4" type="curve" smooth="yes"/>
      <point x="458.6" y="139.0"/>
      <point x="403.8" y="110.0"/>
      <point x="328.2" y="110.0" type="curve" smooth="yes"/>
      <point x="223.0" y="110.0"/>
      <point x="184.4" y="157.2"/>
      <point x="184.4" y="298.0" type="curve"/>
      <point x="117.0" y="298.8"/>
      <point x="71.0" y="346.6"/>
      <point x="71.0" y="317.0" type="curve" smooth="yes"/>
      <point x="71.0" y="243.2" type="line" smooth="yes"/>
      <point x="71.0" y="97.0"/>
      <point x="158.4" y="-20.0"/>
    </contour>
    <contour>
      <point x="318.0" y="344.0" type="curve"/>
      <point x="318.0" y="322.0" type="line" smooth="yes"/>
      <point x="318.0" y="280.4"/>
      <point x="328.2" y="259.8"/>
      <point x="350.6" y="237.4" type="curve" smooth="yes"/>
      <point x="356.0" y="232.0"/>
      <point x="359.2" y="230.0"/>
      <point x="366.6" y="230.0" type="curve"/>
      <point x="414.0" y="230.0"/>
      <point x="369.6" y="230.0"/>
      <point x="417.0" y="230.0" type="curve" smooth="yes"/>
      <point x="468.956862745098" y="230.0"/>
      <point x="526.0431372549019" y="230.0"/>
      <point x="578.0" y="230.0" type="curve"/>
      <point x="578.0" y="252.0" type="line" smooth="yes"/>
      <point x="578.0" y="275.2"/>
      <point x="566.2" y="307.8"/>
      <point x="537.4" y="336.6" type="curve" smooth="yes"/>
      <point x="532.0" y="342.0"/>
      <point x="528.8" y="344.0"/>
      <point x="521.4" y="344.0" type="curve" smooth="yes"/>
      <point x="435.55172413793105" y="344.0"/>
      <point x="403.848275862069" y="344.0"/>
    </contour>
  </outline>
</glyph>
<glyph name="H" format="2">
  <advance width="600.0"/>
  <unicode hex="0048"/>
  <outline>
    <contour>
      <point x="218.0" y="-10.0" type="line"/>
      <point x="218.0" y="202.2"/>
      <point x="218.0" y="457.2"/>
      <point x="218.0" y="669.4" type="curve" smooth="yes"/>
      <point x="218.0" y="676.8"/>
      <point x="216.0" y="680.0"/>
      <point x="210.60000000000002" y="685.4" type="curve" smooth="yes"/>
      <point x="197.8" y="698.2"/>
      <point x="143.6" y="710.0"/>
      <point x="102.0" y="710.0" type="curve" smooth="yes"/>
      <point x="80.0" y="710.0" type="line"/>
      <point x="80.0" y="604.2"/>
      <point x="80.0" y="454.8"/>
      <point x="80.0" y="349.0" type="curve" smooth="yes"/>
      <point x="80.0" y="246.4"/>
      <point x="80.0" y="141.2"/>
      <point x="80.0" y="38.6" type="curve" smooth="yes"/>
      <point x="80.0" y="31.200000000000003"/>
      <point x="82.0" y="28.0"/>
      <point x="87.4" y="22.6" type="curve" smooth="yes"/>
      <point x="109.8" y="0.20000000000000018"/>
      <point x="154.4" y="-10.0"/>
      <point x="196.0" y="-10.0" type="curve" smooth="yes"/>
    </contour>
    <contour>
      <point x="528.0" y="-10.0" type="line"/>
      <point x="528.0" y="202.47067669172935"/>
      <point x="528.0" y="456.9293233082707"/>
      <point x="528.0" y="669.4" type="curve" smooth="yes"/>
      <point x="528.0" y="676.8"/>
      <point x="526.0" y="680.0"/>
      <point x="520.6" y="685.4" type="curve" smooth="yes"/>
      <point x="507.8" y="698.2"/>
      <point x="453.6" y="710.0"/>
      <point x="412.0" y="710.0" type="curve" smooth="yes"/>
      <point x="390.0" y="710.0" type="line"/>
      <point x="390.0" y="603.9419354838709"/>
      <point x="390.0" y="455.05806451612904"/>
      <point x="390.0" y="349.0" type="curve" smooth="yes"/>
      <point x="390.0" y="246.4"/>
      <point x="390.0" y="141.2"/>
      <point x="390.0" y="38.6" type="curve" smooth="yes"/>
      <point x="390.0" y="31.200000000000003"/>
      <point x="392.0" y="28.0"/>
      <point x="397.4" y="22.6" type="curve" smooth="yes"/>
      <point x="419.8" y="0.20000000000000018"/>
      <point x="464.4" y="-10.0"/>
      <point x="506.0" y="-10.0" type="curve" smooth="yes"/>
    </contour>
    <contour>
      <point x="30.0" y="380.0" type="curve"/>
      <point x="30.0" y="358.0" type="line" smooth="yes"/>
      <point x="30.0" y="316.4"/>
      <point x="40.2" y="279.8"/>
      <point x="62.6" y="257.4" type="curve" smooth="yes"/>
      <point x="68.0" y="252.0"/>
      <point x="71.2" y="250.0"/>
      <point x="78.6" y="250.0" type="curve"/>
      <point x="131.28837209302327" y="250.0"/>
      <point x="180.31162790697675" y="250.0"/>
      <point x="233.0" y="250.0" type="curve"/>
      <point x="311.2" y="250.0"/>
      <point x="417.8" y="250.0"/>
      <point x="496.0" y="250.0" type="curve"/>
      <point x="496.0" y="272.0" type="line" smooth="yes"/>
      <point x="496.0" y="295.2"/>
      <point x="476.2" y="343.8"/>
      <point x="447.4" y="372.6" type="curve" smooth="yes"/>
      <point x="442.0" y="378.0"/>
      <point x="438.8" y="380.0"/>
      <point x="431.4" y="380.0" type="curve" smooth="yes"/>
      <point x="305.23927648578814" y="380.0"/>
      <point x="156.1607235142119" y="380.0"/>
    </contour>
  </outline>
</glyph>
<glyph name="I" format="2">
  <advance width="600.0"/>
  <unicode hex="0049"/>
  <outline>
    <contour>
      <point x="54.0" y="700.0" type="curve"/>
      <point x="54.0" y="678.0" type="line" smooth="yes"/>
      <point x="54.0" y="636.4"/>
      <point x="64.2" y="599.8"/>
      <point x="86.6" y="577.4" type="curve" smooth="yes"/>
      <point x="92.0" y="572.0"/>
      <point x="95.2" y="570.0"/>
      <point x="102.6" y="570.0" type="curve"/>
      <point x="153.8" y="570.0"/>
      <point x="181.8" y="570.0"/>
      <point x="233.0" y="570.0" type="curve"/>
      <point x="315.2" y="570.0"/>
      <point x="463.8" y="570.0"/>
      <point x="546.0" y="570.0" type="curve"/>
      <point x="546.0" y="592.0" type="line" smooth="yes"/>
      <point x="546.0" y="615.2"/>
      <point x="526.2" y="663.8"/>
      <point x="497.4" y="692.6" type="curve" smooth="yes"/>
      <point x="492.0" y="698.0"/>
      <point x="488.8" y="700.0"/>
      <point x="481.4" y="700.0" type="curve" smooth="yes"/>
      <point x="352.8" y="700.0"/>
      <point x="182.6" y="700.0"/>
    </contour>
    <contour>
      <point x="365.0" y="36.0" type="line"/>
      <point x="365.0" y="245.4"/>
      <point x="365.0" y="414.0"/>
      <point x="365.0" y="623.4" type="curve" smooth="yes"/>
      <point x="365.0" y="630.8"/>
      <point x="363.0" y="634.0"/>
      <point x="357.6" y="639.4" type="curve" smooth="yes"/>
      <point x="344.8" y="652.2"/>
      <point x="290.6" y="664.0"/>
      <point x="249.0" y="664.0" type="curve" smooth="yes"/>
      <point x="227.0" y="664.0" type="line"/>
      <point x="227.0" y="559.4"/>
      <point x="227.0" y="453.6"/>
      <point x="227.0" y="349.0" type="curve" smooth="yes"/>
      <point x="227.0" y="248.4"/>
      <point x="227.0" y="185.2"/>
      <point x="227.0" y="84.6" type="curve" smooth="yes"/>
      <point x="227.0" y="77.2"/>
      <point x="229.0" y="74.0"/>
      <point x="234.4" y="68.6" type="curve" smooth="yes"/>
      <point x="256.8" y="46.2"/>
      <point x="301.4" y="36.0"/>
      <point x="343.0" y="36.0" type="curve" smooth="yes"/>
    </contour>
    <contour>
      <point x="54.0" y="130.0" type="curve"/>
      <point x="54.0" y="108.0" type="line" smooth="yes"/>
      <point x="54.0" y="66.4"/>
      <point x="64.2" y="29.8"/>
      <point x="86.6" y="7.4" type="curve" smooth="yes"/>
      <point x="92.0" y="2.0"/>
      <point x="95.2" y="0.0"/>
      <point x="102.6" y="0.0" type="curve"/>
      <point x="153.8" y="0.0"/>
      <point x="181.8" y="0.0"/>
      <point x="233.0" y="0.0" type="curve"/>
      <point x="315.2" y="0.0"/>
      <point x="463.8" y="0.0"/>
      <point x="546.0" y="0.0" type="curve"/>
      <point x="546.0" y="22.0" type="line" smooth="yes"/>
      <point x="546.0" y="45.2"/>
      <point x="526.2" y="93.80000000000001"/>
      <point x="497.4" y="122.60000000000001" type="curve" smooth="yes"/>
      <point x="492.0" y="128.0"/>
      <point x="488.8" y="130.0"/>
      <point x="481.4" y="130.0" type="curve" smooth="yes"/>
      <point x="352.8" y="130.0"/>
      <point x="182.6" y="130.0"/>
    </contour>
  </outline>
</glyph>
<glyph name="L" format="2">
  <advance width="600.0"/>
  <unicode hex="004C"/>
  <outline>
    <contour>
      <point x="210.0" y="71.4" type="line"/>
      <point x="210.0" y="282.3875"/>
      <point x="210.0" y="458.4125"/>
      <point x="210.0" y="669.4" type="curve" smooth="yes"/>
      <point x="210.0" y="676.8"/>
      <point x="208.0" y="680.0"/>
      <point x="202.6" y="685.4" type="curve" smooth="yes"/>
      <point x="189.8" y="698.2"/>
      <point x="135.6" y="710.0"/>
      <point x="94.0" y="710.0" type="curve" smooth="yes"/>
      <point x="72.0" y="710.0" type="line"/>
      <point x="72.0" y="604.2"/>
      <point x="72.0" y="454.8"/>
      <point x="72.0" y="349.0" type="curve" smooth="yes"/>
      <point x="72.0" y="248.2"/>
      <point x="72.0" y="220.8"/>
      <point x="72.0" y="120.0" type="curve" smooth="yes"/>
      <point x="72.0" y="112.60000000000001"/>
      <point x="74.0" y="109.4"/>
      <point x="79.4" y="104.0" type="curve" smooth="yes"/>
      <point x="101.8" y="81.6"/>
      <point x="146.4" y="71.4"/>
      <point x="188.0" y="71.4" type="curve" smooth="yes"/>
    </contour>
    <contour>
      <point x="72.0" y="130.0" type="curve"/>
      <point x="72.0" y="108.0" type="line" smooth="yes"/>
      <point x="72.0" y="66.4"/>
      <point x="82.2" y="29.8"/>
      <point x="104.6" y="7.4" type="curve" smooth="yes"/>
      <point x="110.0" y="2.0"/>
      <point x="113.2" y="0.0"/>
      <point x="120.6" y="0.0" type="curve"/>
      <point x="169.4" y="0.0"/>
      <point x="136.2" y="0.0"/>
      <point x="185.0" y="0.0" type="curve" smooth="yes"/>
      <point x="270.35844155844154" y="0.0"/>
      <point x="476.64155844155846" y="0.0"/>
      <point x="562.0" y="0.0" type="curve"/>
      <point x="562.0" y="22.0" type="line" smooth="yes"/>
      <point x="562.0" y="45.2"/>
      <point x="542.2" y="93.80000000000001"/>
      <point x="513.4" y="122.60000000000001" type="curve" smooth="yes"/>
      <point x="508.0" y="128.0"/>
      <point x="504.8" y="130.0"/>
      <point x="497.4" y="130.0" type="curve" smooth="yes"/>
      <point x="366.59512195121954" y="130.0"/>
      <point x="202.8048780487805" y="130.0"/>
    </contour>
  </outline>
</glyph>
<glyph name="P" format="2">
  <advance width="600.0"/>
  <unicode hex="0050"/>
  <outline>
    <contour>
      <point x="30.0" y="700.0" type="curve"/>
      <point x="30.0" y="678.0" type="line" smooth="yes"/>
      <point x="30.0" y="636.2"/>
      <point x="34.599999999999994" y="593.4"/>
      <point x="50.6" y="577.4" type="curve" smooth="yes"/>
      <point x="56.2" y="571.8"/>
      <point x="59.8" y="570.0"/>
      <point x="67.0" y="570.0" type="curve" smooth="yes"/>
      <point x="76.4" y="570.0"/>
      <point x="87.0" y="571.8"/>
      <point x="114.0" y="577.8" type="curve" smooth="yes"/>
      <point x="156.6" y="586.8"/>
      <point x="211.2" y="590.0"/>
      <point x="318.0" y="590.0" type="curve" smooth="yes"/>
      <point x="386.6" y="590.0"/>
      <point x="425.6" y="581.4"/>
      <point x="472.2" y="551.2" type="curve"/>
      <point x="495.8" y="574.8"/>
      <point x="495.2" y="631.2"/>
      <point x="475.4" y="651.0" type="curve" smooth="yes"/>
      <point x="423.0" y="703.4"/>
      <point x="380.4" y="720.0"/>
      <point x="299.6" y="720.0" type="curve" smooth="yes"/>
      <point x="203.2" y="720.0"/>
      <point x="120.6" y="714.4"/>
    </contour>
    <contour>
      <point x="218.0" y="-10.0" type="line"/>
      <point x="218.0" y="202.2"/>
      <point x="218.0" y="413.2"/>
      <point x="218.0" y="625.4" type="curve" smooth="yes"/>
      <point x="218.0" y="632.8"/>
      <point x="216.0" y="636.0"/>
      <point x="210.60000000000002" y="641.4" type="curve" smooth="yes"/>
      <point x="197.8" y="654.2"/>
      <point x="143.6" y="666.0"/>
      <point x="102.0" y="666.0" type="curve" smooth="yes"/>
      <point x="80.0" y="666.0" type="line"/>
      <point x="80.0" y="513.0"/>
      <point x="80.0" y="382.0"/>
      <point x="80.0" y="229.0" type="curve" smooth="yes"/>
      <point x="80.0" y="166.4"/>
      <point x="80.0" y="101.2"/>
      <point x="80.0" y="38.6" type="curve" smooth="yes"/>
      <point x="80.0" y="31.200000000000003"/>
      <point x="82.0" y="28.0"/>
      <point x="87.4" y="22.6" type="curve" smooth="yes"/>
      <point x="109.8" y="0.20000000000000018"/>
      <point x="154.4" y="-10.0"/>
      <point x="196.0" y="-10.0" type="curve" smooth="yes"/>
    </contour>
    <contour>
      <point x="537.0" y="466.4" type="curve" smooth="yes"/>
      <point x="537.0" y="520.0" type="line" smooth="yes"/>
      <point x="537.0" y="566.2"/>
      <point x="521.4" y="607.4"/>
      <point x="475.4" y="651.0" type="curve" smooth="yes"/>
      <point x="434.8" y="689.2"/>
      <point x="379.4" y="691.2"/>
      <point x="340.2" y="657.6" type="curve"/>
      <point x="389.4" y="619.2"/>
      <point x="407.0" y="580.2"/>
      <point x="407.0" y="506.0" type="curve" smooth="yes"/>
      <point x="407.0" y="460.4" type="line" smooth="yes"/>
      <point x="407.0" y="348.8"/>
      <point x="350.4" y="287.0"/>
      <point x="268.8" y="287.0" type="curve" smooth="yes"/>
      <point x="238.60000000000002" y="287.0"/>
      <point x="225.8" y="288.6"/>
      <point x="201.2" y="295.0" type="curve"/>
      <point x="195.6" y="287.2"/>
      <point x="191.2" y="273.8"/>
      <point x="191.2" y="260.8" type="curve" smooth="yes"/>
      <point x="191.2" y="216.0"/>
      <point x="245.0" y="153.0"/>
      <point x="299.4" y="153.0" type="curve" smooth="yes"/>
      <point x="425.4" y="153.0"/>
      <point x="537.0" y="262.2"/>
    </contour>
  </outline>
</glyph>
<glyph name="R" format="2">
  <advance width="600.0"/>
  <unicode hex="0052"/>
  <outline>
    <contour>
      <point x="30.0" y="700.0" type="curve"/>
      <point x="30.0" y="678.0" type="line" smooth="yes"/>
      <point x="30.0" y="636.2"/>
      <point x="34.599999999999994" y="593.4"/>
      <point x="50.6" y="577.4" type="curve" smooth="yes"/>
      <point x="56.2" y="571.8"/>
      <point x="59.8" y="570.0"/>
      <point x="67.0" y="570.0" type="curve" smooth="yes"/>
      <point x="76.4" y="570.0"/>
      <point x="87.0" y="571.8"/>
      <point x="114.0" y="577.8" type="curve" smooth="yes"/>
      <point x="156.57230143649522" y="586.8386611193905"/>
      <point x="211.15828220858896" y="590.0"/>
      <point x="318.0" y="590.0" type="curve" smooth="yes"/>
      <point x="386.6" y="590.0"/>
      <point x="425.6" y="581.4"/>
      <point x="472.2" y="551.2" type="curve"/>
      <point x="495.8" y="574.8"/>
      <point x="495.2" y="631.2"/>
      <point x="475.4" y="651.0" type="curve" smooth="yes"/>
      <point x="423.0" y="703.4"/>
      <point x="380.4" y="720.0"/>
      <point x="299.6" y="720.0" type="curve" smooth="yes"/>
      <point x="203.26511627906976" y="720.0"/>
      <point x="120.57478528103914" y="714.3177815394776"/>
    </contour>
    <contour>
      <point x="218.0" y="-10.0" type="line"/>
      <point x="218.0" y="202.2"/>
      <point x="218.0" y="413.2"/>
      <point x="218.0" y="625.4" type="curve" smooth="yes"/>
      <point x="218.0" y="632.8"/>
      <point x="216.0" y="636.0"/>
      <point x="210.60000000000002" y="641.4" type="curve" smooth="yes"/>
      <point x="197.8" y="654.2"/>
      <point x="143.6" y="666.0"/>
      <point x="102.0" y="666.0" type="curve" smooth="yes"/>
      <point x="80.0" y="666.0" type="line"/>
      <point x="80.0" y="513.0"/>
      <point x="80.0" y="382.0"/>
      <point x="80.0" y="229.0" type="curve" smooth="yes"/>
      <point x="80.0" y="166.4"/>
      <point x="80.0" y="101.2"/>
      <point x="80.0" y="38.6" type="curve" smooth="yes"/>
      <point x="80.0" y="31.200000000000003"/>
      <point x="82.0" y="28.0"/>
      <point x="87.4" y="22.6" type="curve" smooth="yes"/>
      <point x="109.8" y="0.20000000000000018"/>
      <point x="154.4" y="-10.0"/>
      <point x="196.0" y="-10.0" type="curve" smooth="yes"/>
    </contour>
    <contour>
      <point x="537.0" y="479.4" type="curve" smooth="yes"/>
      <point x="537.0" y="520.0" type="line" smooth="yes"/>
      <point x="537.0" y="566.2"/>
      <point x="521.4" y="607.4"/>
      <point x="475.4" y="651.0" type="curve" smooth="yes"/>
      <point x="434.8" y="689.2"/>
      <point x="379.4" y="691.2"/>
      <point x="340.2" y="657.6" type="curve"/>
      <point x="389.4" y="619.2"/>
      <point x="407.0" y="580.2"/>
      <point x="407.0" y="506.0" type="curve" smooth="yes"/>
      <point x="407.0" y="473.4" type="line" smooth="yes"/>
      <point x="407.0" y="355.0"/>
      <point x="340.8" y="290.0"/>
      <point x="244.8" y="290.0" type="curve" smooth="yes"/>
      <point x="212.2" y="290.0"/>
      <point x="202.6" y="293.2"/>
      <point x="182.0" y="304.4" type="curve"/>
      <point x="171.6" y="294.2"/>
      <point x="167.2" y="279.2"/>
      <point x="167.2" y="263.8" type="curve" smooth="yes"/>
      <point x="167.2" y="222.2"/>
      <point x="206.6" y="180.0"/>
      <point x="254.6" y="180.0" type="curve" smooth="yes"/>
      <point x="407.8" y="180.0"/>
      <point x="537.0" y="296.4"/>
    </contour>
    <contour>
      <point x="374.0" y="301.0" type="line"/>
      <point x="294.4" y="257.8"/>
      <point x="264.4" y="226.8"/>
      <point x="279.2" y="203.0" type="curve" smooth="yes"/>
      <point x="369.8" y="70.0" type="line" smooth="yes"/>
      <point x="413.0" y="5.6000000000000005"/>
      <point x="451.4" y="-20.0"/>
      <point x="504.0" y="-20.0" type="curve" smooth="yes"/>
      <point x="546.4" y="-20.0"/>
      <point x="566.0" y="-2.5999999999999996"/>
      <point x="566.0" y="35.6" type="curve" smooth="yes"/>
      <point x="566.0" y="130.0" type="line"/>
      <point x="552.0" y="130.0" type="line"/>
      <point x="546.4" y="127.80000000000001"/>
      <point x="538.8" y="126.0"/>
      <point x="532.0" y="126.0" type="curve" smooth="yes"/>
      <point x="494.0" y="126.0"/>
      <point x="471.4" y="140.0"/>
      <point x="450.6" y="176.4" type="curve" smooth="yes"/>
    </contour>
  </outline>
</glyph>
<glyph name="S" format="2">
  <advance width="600.0"/>
  <unicode hex="0053"/>
  <outline>
    <contour>
      <point x="388.0" y="331.8" type="curve" smooth="yes"/>
      <point x="295.8" y="365.2" type="line" smooth="yes"/>
      <point x="219.64546362478274" y="392.4845956191969"/>
      <point x="200.6" y="413.8046875"/>
      <point x="200.6" y="451.4" type="curve" smooth="yes"/>
      <point x="200.6" y="471.0"/>
      <point x="204.0" y="502.8"/>
      <point x="213.8" y="534.4" type="curve"/>
      <point x="137.45455896094495" y="531.7476412259402"/>
      <point x="74.0" y="506.0"/>
      <point x="74.0" y="432.4" type="curve" smooth="yes"/>
      <point x="74.0" y="372.4"/>
      <point x="105.0" y="323.6"/>
      <point x="255.8" y="268.0" type="curve" smooth="yes"/>
      <point x="346.6" y="234.4" type="line" smooth="yes"/>
      <point x="456.38453665688735" y="193.58714915092565"/>
      <point x="458.798486443418" y="160.89232695150133"/>
      <point x="459.0" y="98.2" type="curve"/>
      <point x="494.2647058823529" y="98.2"/>
      <point x="544.8" y="138.9375"/>
      <point x="544.8" y="177.0" type="curve"/>
      <point x="544.8" y="227.256338028169"/>
      <point x="512.8046468300778" y="286.61242292079515"/>
    </contour>
    <contour>
      <point x="300.0" y="-20.0" type="curve" smooth="yes"/>
      <point x="452.0" y="-20.0"/>
      <point x="544.8" y="40.2"/>
      <point x="544.8" y="119.2" type="curve" smooth="yes"/>
      <point x="544.8" y="177.0" type="line" smooth="yes"/>
      <point x="544.8" y="192.2"/>
      <point x="511.8" y="201.2"/>
      <point x="473.2" y="201.2" type="curve"/>
      <point x="454.0" y="137.2"/>
      <point x="398.2" y="110.0"/>
      <point x="300.0" y="110.0" type="curve" smooth="yes"/>
      <point x="202.4" y="110.0"/>
      <point x="132.2" y="138.8"/>
      <point x="77.6" y="193.4" type="curve"/>
      <point x="55.4" y="193.4" type="line"/>
      <point x="55.4" y="171.0"/>
      <point x="55.4" y="129.6"/>
      <point x="55.4" y="84.8" type="curve" smooth="yes"/>
      <point x="55.4" y="32.2"/>
      <point x="166.0" y="-20.0"/>
    </contour>
    <contour>
      <point x="380.0" y="720.0" type="curve" smooth="yes"/>
      <point x="235.2" y="720.0"/>
      <point x="74.0" y="584.2"/>
      <point x="74.0" y="479.8" type="curve" smooth="yes"/>
      <point x="74.0" y="432.4" type="line" smooth="yes"/>
      <point x="74.0" y="405.0"/>
      <point x="136.0" y="374.6"/>
      <point x="208.4" y="373.4" type="curve"/>
      <point x="200.6" y="398.6"/>
      <point x="200.6" y="427.0"/>
      <point x="200.6" y="451.4" type="curve" smooth="yes"/>
      <point x="200.6" y="520.6"/>
      <point x="300.0" y="601.2"/>
      <point x="381.6" y="601.2" type="curve" smooth="yes"/>
      <point x="403.0" y="601.2"/>
      <point x="425.0" y="599.6"/>
      <point x="451.6" y="585.6" type="curve"/>
      <point x="502.8" y="609.6"/>
      <point x="512.4" y="645.0"/>
      <point x="481.2" y="676.2" type="curve"/>
      <point x="454.2" y="703.2"/>
      <point x="418.6" y="720.0"/>
    </contour>
    <contour>
      <point x="520.0" y="450.0" type="line"/>
      <point x="520.0" y="584.0" type="line" smooth="yes"/>
      <point x="520.0" y="617.4"/>
      <point x="511.4" y="646.0"/>
      <point x="481.2" y="676.2" type="curve" smooth="yes"/>
      <point x="447.6" y="709.8"/>
      <point x="402.2" y="711.2"/>
      <point x="375.0" y="679.6" type="curve"/>
      <point x="383.6" y="666.8"/>
      <point x="390.0" y="631.4"/>
      <point x="390.0" y="604.2" type="curve" smooth="yes"/>
      <point x="390.0" y="498.6" type="line" smooth="yes"/>
      <point x="390.0" y="492.0"/>
      <point x="391.2" y="488.8"/>
      <point x="397.4" y="482.6" type="curve" smooth="yes"/>
      <point x="419.0" y="461.0"/>
      <point x="454.0" y="450.0"/>
      <point x="498.0" y="450.0" type="curve" smooth="yes"/>
    </contour>
  </outline>
</glyph>
<glyph name="T" format="2">
  <advance width="600.0"/>
  <unicode hex="0054"/>
  <outline>
    <contour>
      <point x="369.0" y="-14.0" type="line"/>
      <point x="369.0" y="196.7846153846154"/>
      <point x="369.0" y="412.61538461538464"/>
      <point x="369.0" y="623.4" type="curve" smooth="yes"/>
      <point x="369.0" y="630.8"/>
      <point x="367.0" y="634.0"/>
      <point x="361.6" y="639.4" type="curve" smooth="yes"/>
      <point x="348.8" y="652.2"/>
      <point x="294.6" y="664.0"/>
      <point x="253.0" y="664.0" type="curve" smooth="yes"/>
      <point x="231.0" y="664.0" type="line"/>
      <point x="231.0" y="559.4"/>
      <point x="231.0" y="413.6"/>
      <point x="231.0" y="309.0" type="curve" smooth="yes"/>
      <point x="231.0" y="206.41408450704228"/>
      <point x="231.0" y="137.18591549295775"/>
      <point x="231.0" y="34.6" type="curve" smooth="yes"/>
      <point x="231.0" y="27.200000000000003"/>
      <point x="233.0" y="24.0"/>
      <point x="238.4" y="18.6" type="curve" smooth="yes"/>
      <point x="260.8" y="-3.8"/>
      <point x="305.4" y="-14.0"/>
      <point x="347.0" y="-14.0" type="curve" smooth="yes"/>
    </contour>
    <contour>
      <point x="34.0" y="700.0" type="curve"/>
      <point x="34.0" y="678.0" type="line" smooth="yes"/>
      <point x="34.0" y="636.4"/>
      <point x="44.2" y="599.8"/>
      <point x="66.6" y="577.4" type="curve" smooth="yes"/>
      <point x="72.0" y="572.0"/>
      <point x="75.2" y="570.0"/>
      <point x="82.6" y="570.0" type="curve"/>
      <point x="135.28837209302327" y="570.0"/>
      <point x="132.31162790697675" y="570.0"/>
      <point x="185.0" y="570.0" type="curve"/>
      <point x="268.81509433962265" y="570.0"/>
      <point x="482.18490566037735" y="570.0"/>
      <point x="566.0" y="570.0" type="curve"/>
      <point x="566.0" y="592.0" type="line" smooth="yes"/>
      <point x="566.0" y="615.2"/>
      <point x="546.2" y="663.8"/>
      <point x="517.4" y="692.6" type="curve" smooth="yes"/>
      <point x="512.0" y="698.0"/>
      <point x="508.8" y="700.0"/>
      <point x="501.4" y="700.0" type="curve" smooth="yes"/>
      <point x="369.63326039387306" y="700.0"/>
      <point x="165.7304347826087" y="700.0"/>
    </contour>
  </outline>
</glyph>
<glyph name="a" format="2">
  <advance width="600.0"/>
  <unicode hex="0061"/>
  <outline>
    <contour>
      <point x="215.2" y="560.0" type="curve" smooth="yes"/>
      <point x="152.0" y="560.0"/>
      <point x="113.04242953179308" y="551.0424295317931"/>
      <point x="98.6" y="536.6" type="curve" smooth="yes"/>
      <point x="89.0" y="527.0"/>
      <point x="86.4" y="517.4"/>
      <point x="86.4" y="504.2" type="curve"/>
      <point x="86.4" y="416.6" type="line"/>
      <point x="104.4" y="416.6" type="line"/>
      <point x="155.0" y="429.6"/>
      <point x="226.08387096774194" y="438.0"/>
      <point x="275.2" y="438.0" type="curve" smooth="yes"/>
      <point x="339.4909090909091" y="438.0"/>
      <point x="384.8" y="432.2"/>
      <point x="457.2" y="421.4" type="curve"/>
      <point x="472.0" y="448.2"/>
      <point x="464.6596442562694" y="478.5403557437306"/>
      <point x="421.2" y="521.2" type="curve"/>
      <point x="392.64560180890675" y="548.6150042516994"/>
      <point x="335.5111111111111" y="560.0"/>
    </contour>
    <contour>
      <point x="367.2" y="516.4" type="curve"/>
      <point x="375.2" y="423.0"/>
      <point x="368.9485089030428" y="355.3270971861267"/>
      <point x="361.0" y="297.6" type="curve" smooth="yes"/>
      <point x="361.0" y="228.8"/>
      <point x="361.0" y="199.76296296296297"/>
      <point x="361.0" y="144.8" type="curve" smooth="yes"/>
      <point x="361.0" y="95.0"/>
      <point x="370.0061998388336" y="74.39380016116641"/>
      <point x="399.4" y="45.0" type="curve"/>
      <point x="424.8" y="19.6"/>
      <point x="507.2" y="27.200000000000003"/>
      <point x="509.8" y="57.0" type="curve"/>
      <point x="499.6" y="69.2"/>
      <point x="495.0" y="88.0"/>
      <point x="495.0" y="116.0" type="curve" smooth="yes"/>
      <point x="495.0" y="204.93333333333334"/>
      <point x="495.0" y="263.1259259259259"/>
      <point x="495.0" y="379.2" type="curve" smooth="yes"/>
      <point x="495.0" y="424.15185185185186"/>
      <point x="469.7128066770455" y="470.2871933229545"/>
      <point x="421.2" y="521.2" type="curve"/>
      <point x="406.5849061556979" y="536.615093844302"/>
      <point x="379.2" y="532.8"/>
    </contour>
    <contour>
      <point x="408.2" y="274.8" type="curve" smooth="yes"/>
      <point x="384.58958988778903" y="298.41041011221097"/>
      <point x="320.73877551020405" y="311.0"/>
      <point x="223.0" y="311.0" type="curve" smooth="yes"/>
      <point x="174.16190476190476" y="311.0"/>
      <point x="147.95159334396425" y="300.5515933439642"/>
      <point x="114.2" y="266.8" type="curve" smooth="yes"/>
      <point x="92.6" y="245.2"/>
      <point x="85.2" y="208.4"/>
      <point x="100.8" y="195.0" type="curve"/>
      <point x="130.23200727145218" y="220.8950045446576"/>
      <point x="164.64193548387095" y="225.0"/>
      <point x="206.0" y="225.0" type="curve" smooth="yes"/>
      <point x="271.38378378378377" y="225.0"/>
      <point x="376.1910391873118" y="224.59061961432874"/>
      <point x="430.8" y="221.8" type="curve"/>
      <point x="429.4" y="242.0"/>
      <point x="419.65225585318467" y="263.34774414681533"/>
    </contour>
    <contour>
      <point x="185.0" y="144.0" type="curve" smooth="yes"/>
      <point x="185.0" y="192.2" type="line" smooth="yes"/>
      <point x="185.0" y="252.4"/>
      <point x="189.2" y="268.2"/>
      <point x="208.2" y="290.6" type="curve"/>
      <point x="173.4" y="300.8"/>
      <point x="138.0" y="290.6"/>
      <point x="114.2" y="266.8" type="curve" smooth="yes"/>
      <point x="67.8" y="220.4"/>
      <point x="55.0" y="197.4"/>
      <point x="55.0" y="160.0" type="curve" smooth="yes"/>
      <point x="55.0" y="123.0" type="line" smooth="yes"/>
      <point x="55.0" y="29.6"/>
      <point x="102.0" y="-20.0"/>
      <point x="187.8" y="-20.0" type="curve" smooth="yes"/>
      <point x="268.8" y="-20.0"/>
      <point x="331.4" y="22.6"/>
      <point x="378.0" y="101.0" type="curve" smooth="yes"/>
      <point x="388.0" y="117.0"/>
      <point x="392.0" y="132.0"/>
      <point x="392.0" y="157.2" type="curve"/>
      <point x="340.6" y="116.4"/>
      <point x="297.8" y="102.2"/>
      <point x="244.0" y="102.2" type="curve" smooth="yes"/>
      <point x="222.0" y="102.2" type="line" smooth="yes"/>
      <point x="194.0" y="102.2"/>
      <point x="185.0" y="112.20000000000002"/>
    </contour>
    <contour>
      <point x="508.6" y="-10.0" type="curve" smooth="yes"/>
      <point x="552.4451612903226" y="-10.0"/>
      <point x="571.0" y="7.0"/>
      <point x="571.0" y="46.8" type="curve"/>
      <point x="571.0" y="130.0" type="line"/>
      <point x="549.0" y="130.0" type="line"/>
      <point x="534.8794699794585" y="129.34752922444875"/>
      <point x="527.4244897959184" y="128.0"/>
      <point x="509.2" y="128.0" type="curve" smooth="yes"/>
      <point x="481.89565217391305" y="128.0"/>
      <point x="450.0982091332489" y="128.65089543337558"/>
      <point x="409.4" y="130.60000000000002" type="curve"/>
      <point x="390.8" y="112.0"/>
      <point x="382.4" y="62.0"/>
      <point x="399.4" y="45.0" type="curve"/>
      <point x="430.77432828052105" y="13.809552310944749"/>
      <point x="470.95" y="-10.0"/>
    </contour>
  </outline>
</glyph>
<glyph name="b" format="2">
  <advance width="600.0"/>
  <unicode hex="0062"/>
  <outline>
    <contour>
      <point x="210.0" y="-10.0" type="line"/>
      <point x="210.0" y="233.4"/>
      <point x="210.0" y="514.0"/>
      <point x="210.0" y="717.4" type="curve" smooth="yes"/>
      <point x="210.0" y="724.8"/>
      <point x="208.0" y="728.0"/>
      <point x="202.6" y="733.4" type="curve" smooth="yes"/>
      <point x="189.8" y="746.2"/>
      <point x="135.6" y="758.0"/>
      <point x="94.0" y="758.0" type="curve" smooth="yes"/>
      <point x="72.0" y="758.0" type="line"/>
      <point x="72.0" y="618.4"/>
      <point x="72.0" y="526.6"/>
      <point x="72.0" y="387.0" type="curve" smooth="yes"/>
      <point x="72.0" y="285.0"/>
      <point x="72.0" y="140.60000000000002"/>
      <point x="72.0" y="38.6" type="curve" smooth="yes"/>
      <point x="72.0" y="31.200000000000003"/>
      <point x="74.0" y="28.0"/>
      <point x="79.4" y="22.6" type="curve" smooth="yes"/>
      <point x="101.8" y="0.20000000000000018"/>
      <point x="146.4" y="-10.0"/>
      <point x="188.0" y="-10.0" type="curve" smooth="yes"/>
    </contour>
    <contour>
      <point x="397.2" y="552.0" type="curve" smooth="yes"/>
      <point x="332.8459887583036" y="552.0"/>
      <point x="247.91777286376578" y="489.9603030977447"/>
      <point x="194.0" y="424.0" type="curve" smooth="yes"/>
      <point x="167.6" y="391.8"/>
      <point x="162.2" y="377.2"/>
      <point x="162.6" y="320.2" type="curve"/>
      <point x="252.44038981331593" y="394.57199239302776"/>
      <point x="314.09291208336776" y="414.0"/>
      <point x="389.0" y="414.0" type="curve" smooth="yes"/>
      <point x="441.0" y="414.0"/>
      <point x="471.0" y="377.6"/>
      <point x="502.8" y="322.8" type="curve"/>
      <point x="536.0" y="323.6"/>
      <point x="555.0" y="349.4"/>
      <point x="555.0" y="369.2" type="curve" smooth="yes"/>
      <point x="555.0" y="462.2"/>
      <point x="469.0" y="552.0"/>
    </contour>
    <contour>
      <point x="341.4" y="-20.0" type="curve" smooth="yes"/>
      <point x="478.61944954128444" y="-20.0"/>
      <point x="555.0" y="137.6"/>
      <point x="555.0" y="329.0" type="curve" smooth="yes"/>
      <point x="555.0" y="369.2" type="line" smooth="yes"/>
      <point x="555.0" y="413.6"/>
      <point x="516.4" y="479.6"/>
      <point x="461.2" y="479.6" type="curve"/>
      <point x="420.2" y="479.6"/>
      <point x="388.8" y="469.0"/>
      <point x="388.4" y="440.2" type="curve"/>
      <point x="404.2" y="419.8"/>
      <point x="413.0" y="398.4"/>
      <point x="413.0" y="351.2" type="curve" smooth="yes"/>
      <point x="413.0" y="329.0" type="line" smooth="yes"/>
      <point x="413.0" y="191.8"/>
      <point x="355.73726741095163" y="106.0"/>
      <point x="280.8" y="106.0" type="curve" smooth="yes"/>
      <point x="246.0" y="106.0"/>
      <point x="220.27006369426752" y="111.4"/>
      <point x="195.0" y="123.6" type="curve"/>
      <point x="190.6" y="120.4"/>
      <point x="189.2" y="117.0"/>
      <point x="189.2" y="109.4" type="curve"/>
      <point x="189.2" y="65.6"/>
      <point x="263.4" y="-20.0"/>
    </contour>
  </outline>
</glyph>
<glyph name="c" format="2">
  <advance width="600.0"/>
  <unicode hex="0063"/>
  <outline>
    <contour>
      <point x="359.4" y="560.0" type="curve" smooth="yes"/>
      <point x="184.59640718562872" y="560.0"/>
      <point x="55.0" y="426.6"/>
      <point x="55.0" y="257.0" type="curve" smooth="yes"/>
      <point x="55.0" y="227.0" type="line" smooth="yes"/>
      <point x="55.0" y="163.3"/>
      <point x="75.38792098191288" y="105.61207901808712"/>
      <point x="126.0" y="55.0" type="curve" smooth="yes"/>
      <point x="153.8" y="27.2"/>
      <point x="216.0" y="9.599999999999998"/>
      <point x="243.60000000000002" y="37.6" type="curve"/>
      <point x="220.1138669728873" y="73.00575634036873"/>
      <point x="184.6" y="148.02461538461537"/>
      <point x="184.6" y="214.0" type="curve" smooth="yes"/>
      <point x="184.6" y="249.4" type="line" smooth="yes"/>
      <point x="184.6" y="342.2"/>
      <point x="246.51428571428573" y="430.0"/>
      <point x="352.2" y="430.0" type="curve" smooth="yes"/>
      <point x="393.2315789473684" y="430.0"/>
      <point x="441.6" y="424.4"/>
      <point x="477.4" y="417.8" type="curve"/>
      <point x="504.6" y="430.0"/>
      <point x="522.6" y="461.8"/>
      <point x="482.2" y="502.2" type="curve"/>
      <point x="434.4" y="550.0"/>
      <point x="413.8" y="560.0"/>
    </contour>
    <contour>
      <point x="119.0" y="157.8" type="curve"/>
      <point x="91.8" y="131.0"/>
      <point x="97.0" y="84.0"/>
      <point x="126.0" y="55.0" type="curve" smooth="yes"/>
      <point x="174.05893550415323" y="6.739427398509186"/>
      <point x="211.2162962962963" y="-20.0"/>
      <point x="283.0" y="-20.0" type="curve" smooth="yes"/>
      <point x="329.2" y="-20.0" type="line" smooth="yes"/>
      <point x="425.4" y="-20.0"/>
      <point x="483.0" y="2.0"/>
      <point x="508.8" y="27.799999999999997" type="curve" smooth="yes"/>
      <point x="520.4" y="39.4"/>
      <point x="524.6" y="51.2"/>
      <point x="524.6" y="69.2" type="curve" smooth="yes"/>
      <point x="524.6" y="101.6"/>
      <point x="524.6" y="131.6"/>
      <point x="524.6" y="160.0" type="curve"/>
      <point x="502.6" y="160.0" type="line"/>
      <point x="466.6" y="123.4"/>
      <point x="400.2" y="110.0"/>
      <point x="300.0" y="110.0" type="curve" smooth="yes"/>
      <point x="225.5467054263566" y="110.0"/>
      <point x="166.209864348236" y="122.38991146203136"/>
    </contour>
    <contour>
      <point x="525.0" y="298.0" type="line"/>
      <point x="525.0" y="416.4" type="line" smooth="yes"/>
      <point x="525.0" y="447.6"/>
      <point x="513.4" y="471.0"/>
      <point x="482.2" y="502.2" type="curve" smooth="yes"/>
      <point x="448.8" y="535.6"/>
      <point x="404.0" y="535.8"/>
      <point x="375.8" y="507.4" type="curve"/>
      <point x="386.2" y="495.0"/>
      <point x="395.0" y="454.6"/>
      <point x="395.0" y="426.0" type="curve" smooth="yes"/>
      <point x="395.0" y="346.6" type="line" smooth="yes"/>
      <point x="395.0" y="340.0"/>
      <point x="396.2" y="336.8"/>
      <point x="402.4" y="330.6" type="curve" smooth="yes"/>
      <point x="424.0" y="309.0"/>
      <point x="459.0" y="298.0"/>
      <point x="503.0" y="298.0" type="curve" smooth="yes"/>
    </contour>
  </outline>
</glyph>
<glyph name="d" format="2">
  <advance width="600.0"/>
  <unicode hex="0064"/>
  <outline>
    <contour>
      <point x="262.0" y="560.0" type="curve" smooth="yes"/>
      <point x="151.4977777777778" y="560.0"/>
      <point x="47.0" y="456.4"/>
      <point x="47.0" y="233.0" type="curve" smooth="yes"/>
      <point x="47.0" y="186.8" type="line" smooth="yes"/>
      <point x="47.0" y="139.4"/>
      <point x="89.4" y="68.6"/>
      <point x="163.0" y="68.6" type="curve"/>
      <point x="188.8" y="68.6"/>
      <point x="209.0" y="77.6"/>
      <point x="209.4" y="102.4" type="curve"/>
      <point x="194.4" y="122.4"/>
      <point x="189.0" y="155.8"/>
      <point x="189.0" y="220.8" type="curve" smooth="yes"/>
      <point x="189.0" y="235.0" type="line" smooth="yes"/>
      <point x="189.0" y="371.8"/>
      <point x="225.4742857142857" y="442.0"/>
      <point x="306.0" y="442.0" type="curve" smooth="yes"/>
      <point x="350.0" y="442.0"/>
      <point x="375.2" y="436.8"/>
      <point x="407.0" y="430.4" type="curve"/>
      <point x="417.0" y="434.4"/>
      <point x="416.8" y="460.2"/>
      <point x="407.2" y="475.0" type="curve"/>
      <point x="384.0" y="515.6"/>
      <point x="328.2" y="560.0"/>
    </contour>
    <contour>
      <point x="528.0" y="-10.0" type="line"/>
      <point x="528.0" y="233.8"/>
      <point x="528.0" y="515.6"/>
      <point x="528.0" y="719.4" type="curve" smooth="yes"/>
      <point x="528.0" y="726.8"/>
      <point x="526.0" y="730.0"/>
      <point x="520.6" y="735.4" type="curve" smooth="yes"/>
      <point x="507.8" y="748.2"/>
      <point x="453.6" y="760.0"/>
      <point x="412.0" y="760.0" type="curve" smooth="yes"/>
      <point x="390.0" y="760.0" type="line"/>
      <point x="390.0" y="635.8"/>
      <point x="390.0" y="559.2"/>
      <point x="390.0" y="435.0" type="curve" smooth="yes"/>
      <point x="390.0" y="317.0"/>
      <point x="390.0" y="156.60000000000002"/>
      <point x="390.0" y="38.6" type="curve" smooth="yes"/>
      <point x="390.0" y="31.200000000000003"/>
      <point x="392.0" y="28.0"/>
      <point x="397.4" y="22.6" type="curve" smooth="yes"/>
      <point x="419.8" y="0.20000000000000018"/>
      <point x="464.4" y="-10.0"/>
      <point x="506.0" y="-10.0" type="curve" smooth="yes"/>
    </contour>
    <contour>
      <point x="202.8" y="-12.0" type="curve" smooth="yes"/>
      <point x="262.943484925907" y="-12.0"/>
      <point x="357.7766374080926" y="58.18274428716337"/>
      <point x="406.0" y="116.0" type="curve" smooth="yes"/>
      <point x="433.2" y="148.2"/>
      <point x="437.8" y="162.8"/>
      <point x="437.4" y="219.8" type="curve"/>
      <point x="347.5596101866841" y="145.42800760697227"/>
      <point x="285.90708791663224" y="126.0"/>
      <point x="211.0" y="126.0" type="curve" smooth="yes"/>
      <point x="155.4" y="126.0"/>
      <point x="135.4" y="174.0"/>
      <point x="94.0" y="238.0" type="curve"/>
      <point x="61.8" y="237.2"/>
      <point x="47.0" y="209.0"/>
      <point x="47.0" y="186.8" type="curve" smooth="yes"/>
      <point x="47.0" y="82.6"/>
      <point x="121.0" y="-12.0"/>
    </contour>
  </outline>
</glyph>
<glyph name="e" format="2">
  <advance width="600.0"/>
  <unicode hex="0065"/>
  <outline>
    <contour>
      <point x="360.2" y="560.0" type="curve"/>
      <point x="176.4" y="560.0"/>
      <point x="55.0" y="449.70204081632653"/>
      <point x="55.0" y="279.0" type="curve" smooth="yes"/>
      <point x="55.0" y="219.0" type="line"/>
      <point x="55.0" y="148.7076923076923"/>
      <point x="83.7124091763225" y="97.68759082367751"/>
      <point x="125.2" y="56.2" type="curve"/>
      <point x="153.10620786464528" y="28.29379213535472"/>
      <point x="199.89088140936624" y="20.652241585537016"/>
      <point x="238.60000000000002" y="42.8" type="curve"/>
      <point x="205.0" y="103.0"/>
      <point x="184.6" y="155.2"/>
      <point x="184.6" y="214.8" type="curve" smooth="yes"/>
      <point x="184.6" y="266.2" type="line" smooth="yes"/>
      <point x="184.6" y="385.2102564102564"/>
      <point x="253.6" y="430.0"/>
      <point x="344.2" y="430.0" type="curve" smooth="yes"/>
      <point x="393.9014285714286" y="430.0"/>
      <point x="426.39507876877116" y="423.74776894493795"/>
      <point x="454.4" y="404.0" type="curve"/>
      <point x="481.4" y="404.0"/>
      <point x="495.4" y="426.0"/>
      <point x="495.4" y="446.6" type="curve"/>
      <point x="495.4" y="510.89885057471264"/>
      <point x="422.1320754716981" y="560.0"/>
    </contour>
    <contour>
      <point x="352.2" y="215.0" type="line" smooth="yes"/>
      <point x="485.60655737704917" y="215.0"/>
      <point x="545.0" y="301.6275862068966"/>
      <point x="545.0" y="372.0" type="curve" smooth="yes"/>
      <point x="545.0" y="403.8" type="line" smooth="yes"/>
      <point x="545.0" y="463.0"/>
      <point x="457.2" y="560.0"/>
      <point x="369.0" y="560.0" type="curve" smooth="yes"/>
      <point x="360.2" y="560.0" type="line" smooth="yes"/>
      <point x="315.0" y="560.0"/>
      <point x="283.8" y="527.0"/>
      <point x="283.8" y="480.0" type="curve"/>
      <point x="366.8" y="480.0"/>
      <point x="415.0" y="457.20373831775703"/>
      <point x="415.0" y="407.4" type="curve" smooth="yes"/>
      <point x="415.0" y="365.4" type="line" smooth="yes"/>
      <point x="415.0" y="325.6549019607843"/>
      <point x="391.0830917874396" y="305.0"/>
      <point x="348.8" y="305.0" type="curve" smooth="yes"/>
      <point x="269.2674556213018" y="305.0"/>
      <point x="232.4698224852071" y="305.0"/>
      <point x="175.8" y="305.0" type="curve"/>
      <point x="173.4" y="300.0"/>
      <point x="172.8" y="295.0"/>
      <point x="173.4" y="289.4" type="curve"/>
      <point x="176.0" y="258.8"/>
      <point x="236.2" y="215.0"/>
      <point x="299.6" y="215.0" type="curve" smooth="yes"/>
    </contour>
    <contour>
      <point x="113.8" y="170.0" type="curve"/>
      <point x="83.4" y="139.6"/>
      <point x="94.8" y="86.6"/>
      <point x="125.2" y="56.2" type="curve"/>
      <point x="174.2" y="7.0"/>
      <point x="214.4" y="-20.0"/>
      <point x="287.8" y="-20.0" type="curve" smooth="yes"/>
      <point x="328.2" y="-20.0" type="line" smooth="yes"/>
      <point x="423.4" y="-20.0"/>
      <point x="484.6" y="3.0"/>
      <point x="508.8" y="28.4" type="curve" smooth="yes"/>
      <point x="520.2" y="40.2"/>
      <point x="524.6" y="52.2"/>
      <point x="524.6" y="70.2" type="curve"/>
      <point x="524.6" y="100.6"/>
      <point x="524.6" y="133.6"/>
      <point x="524.6" y="160.0" type="curve"/>
      <point x="502.6" y="160.0" type="line"/>
      <point x="466.6" y="123.4"/>
      <point x="400.2" y="110.0"/>
      <point x="300.0" y="110.0" type="curve" smooth="yes"/>
      <point x="223.6" y="110.0"/>
      <point x="161.0" y="125.4"/>
    </contour>
  </outline>
</glyph>
<glyph name="f" format="2">
  <advance width="600.0"/>
  <unicode hex="0066"/>
  <outline>
    <contour>
      <point x="245.2" y="617.4" type="curve"/>
      <point x="292.59749870662233" y="644.9918415153014"/>
      <point x="343.5736263736264" y="652.0"/>
      <point x="400.0" y="652.0" type="curve" smooth="yes"/>
      <point x="463.8" y="652.0"/>
      <point x="519.0" y="638.6"/>
      <point x="548.0" y="625.0" type="curve"/>
      <point x="570.0" y="625.0" type="line"/>
      <point x="570.0" y="648.2" type="line"/>
      <point x="570.0" y="689.404102428373"/>
      <point x="559.0553281057731" y="726.3336062730723"/>
      <point x="546.0" y="741.8" type="curve" smooth="yes"/>
      <point x="532.4157470323914" y="757.869642515966"/>
      <point x="483.22597402597404" y="770.0"/>
      <point x="441.0" y="770.0" type="curve"/>
      <point x="423.0" y="770.0" type="line"/>
      <point x="351.73743001119817" y="770.0"/>
      <point x="297.6811963181875" y="765.4811963181875"/>
      <point x="240.4" y="708.2" type="curve" smooth="yes"/>
      <point x="216.12396489321085" y="683.9239648932108"/>
      <point x="213.27773040213617" y="639.4732583504281"/>
    </contour>
    <contour>
      <point x="310.0" y="-10.0" type="line"/>
      <point x="310.0" y="181.60529100529098"/>
      <point x="310.0" y="317.32045855379187"/>
      <point x="310.0" y="500.0" type="curve" smooth="yes"/>
      <point x="297.56064669100135" y="580.2869282177437"/>
      <point x="289.4" y="654.3389830508474"/>
      <point x="301.0" y="720.8" type="curve"/>
      <point x="278.87613274617667" y="731.1912051774837"/>
      <point x="259.006817960137" y="726.8068179601371"/>
      <point x="240.4" y="708.2" type="curve" smooth="yes"/>
      <point x="196.6" y="664.4"/>
      <point x="180.0" y="631.9315789473684"/>
      <point x="180.0" y="584.4" type="curve"/>
      <point x="180.0" y="439.3168316831683"/>
      <point x="180.0" y="238.95841584158416"/>
      <point x="180.0" y="38.6" type="curve"/>
      <point x="180.0" y="31.200000000000003"/>
      <point x="182.0" y="28.0"/>
      <point x="187.4" y="22.6" type="curve" smooth="yes"/>
      <point x="209.8" y="0.20000000000000018"/>
      <point x="246.4" y="-10.0"/>
      <point x="288.0" y="-10.0" type="curve" smooth="yes"/>
    </contour>
    <contour>
      <point x="30.0" y="490.0" type="curve"/>
      <point x="30.0" y="468.0" type="line" smooth="yes"/>
      <point x="30.0" y="424.0"/>
      <point x="41.0" y="389.0"/>
      <point x="62.6" y="367.4" type="curve" smooth="yes"/>
      <point x="68.8" y="361.2"/>
      <point x="72.0" y="360.0"/>
      <point x="78.6" y="360.0" type="curve"/>
      <point x="131.73103448275862" y="360.0"/>
      <point x="199.8689655172414" y="360.0"/>
      <point x="253.0" y="360.0" type="curve"/>
      <point x="294.7692307692308" y="360.0"/>
      <point x="509.0000000000001" y="360.0"/>
      <point x="540.0" y="360.0" type="curve"/>
      <point x="540.0" y="382.0" type="line" smooth="yes"/>
      <point x="540.0" y="426.8"/>
      <point x="529.0" y="461.0"/>
      <point x="507.4" y="482.6" type="curve" smooth="yes"/>
      <point x="501.2" y="488.8"/>
      <point x="498.0" y="490.0"/>
      <point x="491.4" y="490.0" type="curve" smooth="yes"/>
      <point x="410.5033707865169" y="490.0"/>
      <point x="111.74157303370787" y="490.0"/>
    </contour>
  </outline>
</glyph>
<glyph name="g" format="2">
  <advance width="600.0"/>
  <unicode hex="0067"/>
  <outline>
    <contour>
      <point x="323.0" y="447.0" type="curve" smooth="yes"/>
      <point x="370.8559628909173" y="447.0"/>
      <point x="412.88751378538194" y="437.63123391705443"/>
      <point x="444.0" y="424.0" type="curve"/>
      <point x="477.0" y="472.2"/>
      <point x="477.0" y="508.0"/>
      <point x="458.4" y="526.6" type="curve" smooth="yes"/>
      <point x="437.015897406022" y="547.9841025939779"/>
      <point x="375.19181286549707" y="560.0"/>
      <point x="315.0" y="560.0" type="curve" smooth="yes"/>
      <point x="174.0" y="560.0"/>
      <point x="64.0" y="480.9888888888889"/>
      <point x="64.0" y="358.0" type="curve" smooth="yes"/>
      <point x="64.0" y="332.0" type="line" smooth="yes"/>
      <point x="64.0" y="290.10709206227176"/>
      <point x="81.78409617790692" y="250.81590382209308"/>
      <point x="125.2" y="207.4" type="curve" smooth="yes"/>
      <point x="138.8" y="193.8"/>
      <point x="205.6" y="188.0"/>
      <point x="216.8" y="201.8" type="curve"/>
      <point x="196.78039441631577" y="238.0414895110426"/>
      <point x="186.0" y="262.6786005934099"/>
      <point x="186.0" y="316.4" type="curve" smooth="yes"/>
      <point x="186.0" y="335.2" type="line" smooth="yes"/>
      <point x="186.0" y="418.45359477124185"/>
      <point x="230.4280991735537" y="447.0"/>
    </contour>
    <contour>
      <point x="297.0" y="267.0" type="curve" smooth="yes"/>
      <point x="236.0" y="267.0"/>
      <point x="160.0" y="272.4"/>
      <point x="115.2" y="293.2" type="curve"/>
      <point x="103.8" y="264.0"/>
      <point x="104.0" y="229.4"/>
      <point x="125.2" y="207.4" type="curve" smooth="yes"/>
      <point x="177.0" y="155.6"/>
      <point x="235.2" y="153.0"/>
      <point x="309.0" y="153.0" type="curve" smooth="yes"/>
      <point x="446.0" y="153.0"/>
      <point x="536.0" y="233.87"/>
      <point x="536.0" y="347.0" type="curve" smooth="yes"/>
      <point x="536.0" y="373.0" type="line" smooth="yes"/>
      <point x="536.0" y="422.8241430700447"/>
      <point x="526.0362162124229" y="458.9637837875771"/>
      <point x="458.4" y="526.6" type="curve" smooth="yes"/>
      <point x="438.4" y="546.6"/>
      <point x="385.8" y="537.6"/>
      <point x="363.8" y="516.4" type="curve"/>
      <point x="397.29466793738334" y="488.99527168759545"/>
      <point x="414.0" y="454.1994439295644"/>
      <point x="414.0" y="386.0" type="curve" smooth="yes"/>
      <point x="414.0" y="369.2" type="line" smooth="yes"/>
      <point x="414.0" y="303.41475177304966"/>
      <point x="368.4" y="267.0"/>
    </contour>
    <contour>
      <point x="160.0" y="54.4" type="curve" smooth="yes"/>
      <point x="160.0" y="41.4" type="line" smooth="yes"/>
      <point x="160.0" y="-17.111111111111114"/>
      <point x="213.4" y="-53.0"/>
      <point x="297.0" y="-53.0" type="curve" smooth="yes"/>
      <point x="414.0" y="-53.0" type="line" smooth="yes"/>
      <point x="430.77037037037036" y="-53.0"/>
      <point x="441.6" y="-66.01818181818182"/>
      <point x="441.6" y="-83.6" type="curve" smooth="yes"/>
      <point x="441.6" y="-121.2" type="line" smooth="yes"/>
      <point x="441.6" y="-153.4"/>
      <point x="440.2" y="-177.0"/>
      <point x="435.2" y="-203.0" type="curve"/>
      <point x="454.4" y="-204.6"/>
      <point x="507.4" y="-193.0"/>
      <point x="520.2" y="-180.2" type="curve" smooth="yes"/>
      <point x="556.8" y="-143.6"/>
      <point x="570.0" y="-115.19999999999999"/>
      <point x="570.0" y="-70.0" type="curve" smooth="yes"/>
      <point x="570.0" y="-57.0" type="line" smooth="yes"/>
      <point x="570.0" y="12.50595763459841"/>
      <point x="514.689464221503" y="65.0"/>
      <point x="443.0" y="65.0" type="curve" smooth="yes"/>
      <point x="302.6" y="65.0" type="line" smooth="yes"/>
      <point x="286.8" y="65.0"/>
      <point x="282.0" y="69.80000000000001"/>
      <point x="282.0" y="85.6" type="curve" smooth="yes"/>
      <point x="282.0" y="116.6" type="line" smooth="yes"/>
      <point x="282.0" y="133.9913043478261"/>
      <point x="285.22177808132915" y="154.6613829521449"/>
      <point x="289.0" y="170.4" type="curve"/>
      <point x="289.0" y="176.6"/>
      <point x="288.2" y="182.6"/>
      <point x="286.0" y="187.4" type="curve" smooth="yes"/>
      <point x="241.48" y="187.4"/>
      <point x="160.0" y="111.73578956536888"/>
    </contour>
    <contour>
      <point x="545.0" y="-99.4" type="curve"/>
      <point x="465.0" y="-154.6"/>
      <point x="411.4" y="-160.0"/>
      <point x="333.4" y="-160.0" type="curve"/>
      <point x="258.0" y="-160.0" type="line"/>
      <point x="187.96582324899157" y="-160.0"/>
      <point x="158.6" y="-142.88235294117646"/>
      <point x="158.6" y="-101.0" type="curve" smooth="yes"/>
      <point x="158.6" y="-76.0" type="line" smooth="yes"/>
      <point x="158.6" y="-49.33980582524272"/>
      <point x="178.2" y="-27.6"/>
      <point x="222.2" y="-6.200000000000003" type="curve"/>
      <point x="222.2" y="8.133333333333333"/>
      <point x="210.6" y="18.799999999999997"/>
      <point x="197.4" y="18.799999999999997" type="curve"/>
      <point x="93.92394366197183" y="18.799999999999997"/>
      <point x="30.2" y="-35.131578947368425"/>
      <point x="30.2" y="-111.2" type="curve" smooth="yes"/>
      <point x="30.2" y="-123.0" type="line" smooth="yes"/>
      <point x="30.2" y="-196.6"/>
      <point x="113.00101360362764" y="-250.0"/>
      <point x="229.0" y="-250.0" type="curve"/>
      <point x="282.0" y="-250.0" type="line"/>
      <point x="384.4" y="-250.0"/>
      <point x="467.4" y="-233.0"/>
      <point x="520.2" y="-180.2" type="curve"/>
      <point x="549.8" y="-150.6"/>
      <point x="560.4" y="-114.8"/>
    </contour>
    <contour>
      <point x="449.4" y="505.4" type="curve" smooth="yes"/>
      <point x="529.2" y="567.2" type="line" smooth="yes"/>
      <point x="555.4" y="587.8"/>
      <point x="570.0" y="605.6"/>
      <point x="570.0" y="631.8" type="curve" smooth="yes"/>
      <point x="570.0" y="638.2"/>
      <point x="570.0" y="647.6"/>
      <point x="570.0" y="656.4" type="curve" smooth="yes"/>
      <point x="570.0" y="663.8"/>
      <point x="568.0" y="667.0"/>
      <point x="562.6" y="672.4" type="curve" smooth="yes"/>
      <point x="540.2" y="694.8"/>
      <point x="495.8" y="705.0"/>
      <point x="454.0" y="705.0" type="curve" smooth="yes"/>
      <point x="440.0" y="705.0" type="line"/>
      <point x="440.0" y="693.0"/>
      <point x="440.0" y="679.8"/>
      <point x="440.0" y="667.8" type="curve" smooth="yes"/>
      <point x="440.0" y="648.6"/>
      <point x="437.0" y="636.4"/>
      <point x="432.6" y="619.4" type="curve" smooth="yes"/>
      <point x="405.4" y="513.0" type="line"/>
      <point x="417.11960873335624" y="502.82030742379146"/>
      <point x="438.4" y="497.6"/>
    </contour>
  </outline>
</glyph>
<glyph name="h" format="2">
  <advance width="600.0"/>
  <unicode hex="0068"/>
  <outline>
    <contour>
      <point x="210.0" y="-10.0" type="line"/>
      <point x="210.0" y="164.0300653594771"/>
      <point x="210.0" y="583.3699346405228"/>
      <point x="210.0" y="717.4" type="curve" smooth="yes"/>
      <point x="210.0" y="724.8"/>
      <point x="208.0" y="728.0"/>
      <point x="202.6" y="733.4" type="curve" smooth="yes"/>
      <point x="189.8" y="746.2"/>
      <point x="135.6" y="758.0"/>
      <point x="94.0" y="758.0" type="curve" smooth="yes"/>
      <point x="72.0" y="758.0" type="line"/>
      <point x="72.0" y="640.2133333333334"/>
      <point x="72.0" y="314.7866666666667"/>
      <point x="72.0" y="197.0" type="curve" smooth="yes"/>
      <point x="72.0" y="144.8"/>
      <point x="72.0" y="90.8"/>
      <point x="72.0" y="38.6" type="curve" smooth="yes"/>
      <point x="72.0" y="31.200000000000003"/>
      <point x="74.0" y="28.0"/>
      <point x="79.4" y="22.6" type="curve" smooth="yes"/>
      <point x="101.8" y="0.20000000000000018"/>
      <point x="146.4" y="-10.0"/>
      <point x="188.0" y="-10.0" type="curve" smooth="yes"/>
    </contour>
    <contour>
      <point x="391.2" y="552.0" type="curve" smooth="yes"/>
      <point x="332.4" y="552.0"/>
      <point x="241.6" y="481.0"/>
      <point x="194.0" y="424.0" type="curve" smooth="yes"/>
      <point x="166.8" y="391.8"/>
      <point x="162.2" y="377.2"/>
      <point x="162.6" y="320.2" type="curve"/>
      <point x="258.8" y="417.4"/>
      <point x="310.0" y="422.0"/>
      <point x="383.0" y="422.0" type="curve" smooth="yes"/>
      <point x="425.2" y="422.0"/>
      <point x="457.2" y="406.8"/>
      <point x="483.8" y="373.4" type="curve"/>
      <point x="513.0" y="374.6"/>
      <point x="528.0" y="393.0"/>
      <point x="528.0" y="413.0" type="curve" smooth="yes"/>
      <point x="528.0" y="467.2"/>
      <point x="455.2" y="552.0"/>
    </contour>
    <contour>
      <point x="528.0" y="-10.0" type="line"/>
      <point x="528.0" y="137.76258992805757"/>
      <point x="528.0" y="265.23741007194246"/>
      <point x="528.0" y="413.0" type="curve" smooth="yes"/>
      <point x="528.0" y="420.4"/>
      <point x="526.0" y="423.6"/>
      <point x="520.6" y="429.0" type="curve" smooth="yes"/>
      <point x="498.2" y="451.4"/>
      <point x="453.6" y="461.6"/>
      <point x="412.0" y="461.6" type="curve" smooth="yes"/>
      <point x="390.0" y="461.6" type="line"/>
      <point x="390.0" y="367.8"/>
      <point x="390.0" y="291.6"/>
      <point x="390.0" y="197.0" type="curve" smooth="yes"/>
      <point x="390.0" y="144.73333333333335"/>
      <point x="390.0" y="90.86666666666667"/>
      <point x="390.0" y="38.6" type="curve" smooth="yes"/>
      <point x="390.0" y="31.200000000000003"/>
      <point x="392.0" y="28.0"/>
      <point x="397.4" y="22.6" type="curve" smooth="yes"/>
      <point x="419.8" y="0.20000000000000018"/>
      <point x="464.4" y="-10.0"/>
      <point x="506.0" y="-10.0" type="curve" smooth="yes"/>
    </contour>
  </outline>
</glyph>
<glyph name="i" format="2">
  <advance width="300.0"/>
  <unicode hex="0069"/>
  <guideline y="0.0" identifier="MeGjFnIIV6"/>
  <guideline x="0.0" identifier="GOd0KuzhgB"/>
  <guideline x="50.0" identifier="HsBTfQ86Ci"/>
  <guideline x="100.0" identifier="M24McFw3p1"/>
  <guideline x="150.0" identifier="AwXYpQzJ6m"/>
  <guideline x="200.0" identifier="tJyAZbCWVJ"/>
  <guideline x="250.0" identifier="SvMhguasMP"/>
  <guideline x="300.0" identifier="g4qbs6NHyr"/>
  <guideline y="-250.0" identifier="XPlBunQhqZ"/>
  <guideline y="-200.0" identifier="hFmHw4nHPS"/>
  <guideline y="-150.0" identifier="D9WtuVs5Ex"/>
  <guideline y="-100.0" identifier="7CcwqiBYAT"/>
  <guideline y="-50.0" identifier="FPIORwy7au"/>
  <guideline y="50.0" identifier="AeyNZ77NMX"/>
  <guideline y="100.0" identifier="8bdITXBMYI"/>
  <guideline y="150.0" identifier="c9M6davzUK"/>
  <guideline y="200.0" identifier="GscesOtgzc"/>
  <guideline y="250.0" identifier="ApKPpEtVzB"/>
  <guideline y="300.0" identifier="lAKBXnpEtB"/>
  <guideline y="350.0" identifier="eokXWTDSu3"/>
  <guideline y="400.0" identifier="szPlmhI2TQ"/>
  <guideline y="450.0" identifier="8uReE326Cl"/>
  <guideline y="500.0" identifier="of8Z8N4gii"/>
  <guideline y="550.0" identifier="eZZMPFek6p"/>
  <guideline y="600.0" identifier="WnMEL2Kc2z"/>
  <guideline y="650.0" identifier="ESrDj4cdhh"/>
  <guideline y="700.0" identifier="MNZ7BO71IH"/>
  <outline>
    <contour>
      <point x="230.0" y="621.0" type="line"/>
      <point x="230.0" y="652.2"/>
      <point x="230.0" y="696.0"/>
      <point x="230.0" y="727.2" type="curve" smooth="yes"/>
      <point x="230.0" y="735.0"/>
      <point x="228.2" y="738.0"/>
      <point x="222.0" y="744.2" type="curve" smooth="yes"/>
      <point x="202.2" y="764.0"/>
      <point x="176.2" y="770.2"/>
      <point x="142.2" y="770.2" type="curve"/>
      <point x="70.0" y="770.2" type="line"/>
      <point x="70.0" y="738.8"/>
      <point x="70.0" y="696.2"/>
      <point x="70.0" y="664.0" type="curve" smooth="yes"/>
      <point x="70.0" y="656.2"/>
      <point x="71.8" y="653.2"/>
      <point x="78.0" y="647.0" type="curve" smooth="yes"/>
      <point x="97.0" y="628.0"/>
      <point x="124.0" y="621.0"/>
      <point x="157.8" y="621.0" type="curve"/>
    </contour>
    <contour>
      <point x="219.0" y="-10.0" type="line"/>
      <point x="219.0" y="159.8"/>
      <point x="219.0" y="331.6"/>
      <point x="219.0" y="501.4" type="curve" smooth="yes"/>
      <point x="219.0" y="508.8"/>
      <point x="217.0" y="512.0"/>
      <point x="211.6" y="517.4" type="curve" smooth="yes"/>
      <point x="198.8" y="530.2"/>
      <point x="144.6" y="542.0"/>
      <point x="103.0" y="542.0" type="curve" smooth="yes"/>
      <point x="81.0" y="542.0" type="line"/>
      <point x="81.0" y="425.8"/>
      <point x="81.0" y="305.2"/>
      <point x="81.0" y="189.0" type="curve" smooth="yes"/>
      <point x="81.0" y="139.2"/>
      <point x="81.0" y="88.4"/>
      <point x="81.0" y="38.6" type="curve" smooth="yes"/>
      <point x="81.0" y="31.200000000000003"/>
      <point x="83.0" y="28.0"/>
      <point x="88.4" y="22.6" type="curve" smooth="yes"/>
      <point x="110.8" y="0.20000000000000018"/>
      <point x="155.4" y="-10.0"/>
      <point x="197.0" y="-10.0" type="curve" smooth="yes"/>
    </contour>
  </outline>
</glyph>
<glyph name="j" format="2">
  <advance width="300.0"/>
  <unicode hex="006A"/>
  <guideline y="0.0" identifier="Gf0BLhH1Gp"/>
  <guideline x="0.0" identifier="jAs656jmL7"/>
  <guideline x="50.0" identifier="R0YQBRbOYy"/>
  <guideline x="100.0" identifier="AWCsFaaIeR"/>
  <guideline x="150.0" identifier="GB7jSGv1BY"/>
  <guideline x="200.0" identifier="Gaot9tGUYM"/>
  <guideline x="250.0" identifier="NJyg7xfrTT"/>
  <guideline x="300.0" identifier="OsUZw1OWIV"/>
  <guideline y="-250.0" identifier="ZOpDRYYFry"/>
  <guideline y="-200.0" identifier="eZ2uxNI2f5"/>
  <guideline y="-150.0" identifier="alYRtCNk6j"/>
  <guideline y="-100.0" identifier="N0wFEmmvmE"/>
  <guideline y="-50.0" identifier="HybNVKZe1b"/>
  <guideline y="50.0" identifier="Cbr1diAA0Z"/>
  <guideline y="100.0" identifier="KMtpWtOBoC"/>
  <guideline y="150.0" identifier="9Dd4fvgoz9"/>
  <guideline y="200.0" identifier="rG0Xxb5CP1"/>
  <guideline y="250.0" identifier="R5OzilDhW0"/>
  <guideline y="300.0" identifier="oN5gjervbN"/>
  <guideline y="350.0" identifier="DglLgtlVY8"/>
  <guideline y="400.0" identifier="gJ1Q7YjEqr"/>
  <guideline y="450.0" identifier="RDHTxWfqoJ"/>
  <guideline y="500.0" identifier="lpLHnqr7jX"/>
  <guideline y="550.0" identifier="oLsvOyGBym"/>
  <guideline y="600.0" identifier="1VgzhD3IDm"/>
  <guideline y="650.0" identifier="r8FtNGWXDp"/>
  <guideline y="700.0" identifier="lfnZAUIDRO"/>
  <outline>
    <contour>
      <point x="230.0" y="621.0" type="line"/>
      <point x="230.0" y="652.2"/>
      <point x="230.0" y="696.0"/>
      <point x="230.0" y="727.2" type="curve" smooth="yes"/>
      <point x="230.0" y="735.0"/>
      <point x="228.2" y="738.0"/>
      <point x="222.0" y="744.2" type="curve" smooth="yes"/>
      <point x="202.2" y="764.0"/>
      <point x="176.2" y="770.2"/>
      <point x="142.2" y="770.2" type="curve"/>
      <point x="70.0" y="770.2" type="line"/>
      <point x="70.0" y="738.8"/>
      <point x="70.0" y="696.2"/>
      <point x="70.0" y="664.0" type="curve" smooth="yes"/>
      <point x="70.0" y="656.2"/>
      <point x="71.8" y="653.2"/>
      <point x="78.0" y="647.0" type="curve" smooth="yes"/>
      <point x="97.0" y="628.0"/>
      <point x="124.0" y="621.0"/>
      <point x="157.8" y="621.0" type="curve"/>
    </contour>
    <contour>
      <point x="63.800000000000004" y="-250.0" type="line"/>
      <point x="134.8" y="-250.0"/>
      <point x="219.0" y="-194.4"/>
      <point x="219.0" y="-16.0" type="curve" smooth="yes"/>
      <point x="219.0" y="155.6"/>
      <point x="219.0" y="329.8"/>
      <point x="219.0" y="501.4" type="curve" smooth="yes"/>
      <point x="219.0" y="508.8"/>
      <point x="217.0" y="512.0"/>
      <point x="211.6" y="517.4" type="curve" smooth="yes"/>
      <point x="198.8" y="530.2"/>
      <point x="144.6" y="542.0"/>
      <point x="103.0" y="542.0" type="curve" smooth="yes"/>
      <point x="81.0" y="542.0" type="line"/>
      <point x="81.0" y="434.4"/>
      <point x="81.0" y="314.0"/>
      <point x="81.0" y="217.0" type="curve"/>
      <point x="81.0" y="138.6"/>
      <point x="81.0" y="61.6"/>
      <point x="81.0" y="-16.0" type="curve" smooth="yes"/>
      <point x="81.0" y="-94.0"/>
      <point x="58.4" y="-120.0"/>
      <point x="1.7999999999999998" y="-120.0" type="curve"/>
      <point x="-8.0" y="-120.0" type="line"/>
      <point x="-8.0" y="-131.6" type="line" smooth="yes"/>
      <point x="-8.0" y="-201.8"/>
      <point x="18.6" y="-250.0"/>
      <point x="49.800000000000004" y="-250.0" type="curve" smooth="yes"/>
    </contour>
  </outline>
</glyph>
<glyph name="k" format="2">
  <advance width="600.0"/>
  <unicode hex="006B"/>
  <outline>
    <contour>
      <point x="202.0" y="-10.0" type="line"/>
      <point x="202.0" y="163.8"/>
      <point x="202.0" y="583.6"/>
      <point x="202.0" y="717.4" type="curve" smooth="yes"/>
      <point x="202.0" y="724.8"/>
      <point x="200.0" y="728.0"/>
      <point x="194.6" y="733.4" type="curve" smooth="yes"/>
      <point x="181.8" y="746.2"/>
      <point x="135.6" y="758.0"/>
      <point x="94.0" y="758.0" type="curve" smooth="yes"/>
      <point x="72.0" y="758.0" type="line"/>
      <point x="72.0" y="640.2"/>
      <point x="72.0" y="314.8"/>
      <point x="72.0" y="197.0" type="curve" smooth="yes"/>
      <point x="72.0" y="144.8"/>
      <point x="72.0" y="90.8"/>
      <point x="72.0" y="38.6" type="curve" smooth="yes"/>
      <point x="72.0" y="31.200000000000003"/>
      <point x="74.0" y="28.0"/>
      <point x="79.4" y="22.6" type="curve" smooth="yes"/>
      <point x="101.8" y="0.20000000000000018"/>
      <point x="138.4" y="-10.0"/>
      <point x="180.0" y="-10.0" type="curve" smooth="yes"/>
    </contour>
    <contour>
      <point x="304.8" y="313.8" type="line"/>
      <point x="242.0" y="259.4"/>
      <point x="236.8" y="214.2"/>
      <point x="254.0" y="195.0" type="curve" smooth="yes"/>
      <point x="367.4" y="62.8" type="line" smooth="yes"/>
      <point x="425.2" y="-4.2"/>
      <point x="452.4" y="-20.0"/>
      <point x="508.0" y="-20.0" type="curve" smooth="yes"/>
      <point x="527.2" y="-20.0"/>
      <point x="550.0" y="-5.8"/>
      <point x="550.0" y="14.0" type="curve" smooth="yes"/>
      <point x="550.0" y="130.0" type="line"/>
      <point x="528.0" y="130.0" type="line"/>
      <point x="520.0" y="127.80000000000001"/>
      <point x="509.2" y="126.0"/>
      <point x="500.0" y="126.0" type="curve" smooth="yes"/>
      <point x="468.4" y="126.0"/>
      <point x="453.8" y="133.60000000000002"/>
      <point x="433.8" y="158.0" type="curve" smooth="yes"/>
    </contour>
    <contour>
      <point x="437.0" y="550.0" type="curve" smooth="yes"/>
      <point x="415.8" y="550.0" type="line"/>
      <point x="357.0" y="373.8"/>
      <point x="254.2" y="280.4"/>
      <point x="120.0" y="229.2" type="curve"/>
      <point x="120.0" y="185.4"/>
      <point x="146.0" y="162.6"/>
      <point x="167.8" y="166.4" type="curve" smooth="yes"/>
      <point x="304.4" y="191.4"/>
      <point x="445.6" y="282.2"/>
      <point x="532.8" y="463.2" type="curve" smooth="yes"/>
      <point x="541.8" y="482.0"/>
      <point x="543.2" y="488.2"/>
      <point x="543.2" y="494.6" type="curve" smooth="yes"/>
      <point x="543.2" y="522.0666666666666"/>
      <point x="488.006" y="550.0"/>
    </contour>
  </outline>
</glyph>
<glyph name="l" format="2">
  <advance width="300.0"/>
  <unicode hex="006C"/>
  <outline>
    <contour>
      <point x="18.0" y="750.0" type="curve"/>
      <point x="18.0" y="728.0" type="line" smooth="yes"/>
      <point x="18.0" y="671.2"/>
      <point x="24.2" y="641.8"/>
      <point x="38.599999999999994" y="627.4" type="curve" smooth="yes"/>
      <point x="44.0" y="622.0"/>
      <point x="47.2" y="620.0"/>
      <point x="54.599999999999994" y="620.0" type="curve"/>
      <point x="88.0" y="620.0"/>
      <point x="130.6" y="620.0"/>
      <point x="163.2" y="620.0" type="curve"/>
      <point x="163.2" y="642.0" type="line" smooth="yes"/>
      <point x="163.2" y="665.2"/>
      <point x="143.4" y="713.8"/>
      <point x="114.6" y="742.6" type="curve" smooth="yes"/>
      <point x="109.19999999999999" y="748.0"/>
      <point x="106.0" y="750.0"/>
      <point x="98.6" y="750.0" type="curve" smooth="yes"/>
      <point x="80.6" y="750.0"/>
      <point x="36.0" y="750.0"/>
    </contour>
    <contour>
      <point x="219.0" y="-10.0" type="line"/>
      <point x="219.0" y="163.8"/>
      <point x="219.0" y="575.6"/>
      <point x="219.0" y="709.4" type="curve" smooth="yes"/>
      <point x="219.0" y="716.8"/>
      <point x="217.0" y="720.0"/>
      <point x="211.6" y="725.4" type="curve" smooth="yes"/>
      <point x="198.8" y="738.2"/>
      <point x="144.6" y="750.0"/>
      <point x="103.0" y="750.0" type="curve" smooth="yes"/>
      <point x="81.0" y="750.0" type="line"/>
      <point x="81.0" y="632.2"/>
      <point x="81.0" y="314.8"/>
      <point x="81.0" y="197.0" type="curve" smooth="yes"/>
      <point x="81.0" y="144.8"/>
      <point x="81.0" y="90.8"/>
      <point x="81.0" y="38.6" type="curve" smooth="yes"/>
      <point x="81.0" y="31.200000000000003"/>
      <point x="83.0" y="28.0"/>
      <point x="88.4" y="22.6" type="curve" smooth="yes"/>
      <point x="110.8" y="0.20000000000000018"/>
      <point x="155.4" y="-10.0"/>
      <point x="197.0" y="-10.0" type="curve" smooth="yes"/>
    </contour>
  </outline>
</glyph>
<glyph name="m" format="2">
  <advance width="900.0"/>
  <unicode hex="006D"/>
  <outline>
    <contour>
      <point x="210.0" y="-10.0" type="line"/>
      <point x="210.0" y="163.2"/>
      <point x="210.0" y="336.4"/>
      <point x="210.0" y="509.4" type="curve" smooth="yes"/>
      <point x="210.0" y="516.8"/>
      <point x="208.0" y="520.0"/>
      <point x="202.6" y="525.4" type="curve" smooth="yes"/>
      <point x="189.8" y="538.2"/>
      <point x="135.6" y="550.0"/>
      <point x="94.0" y="550.0" type="curve" smooth="yes"/>
      <point x="72.0" y="550.0" type="line"/>
      <point x="72.0" y="433.2"/>
      <point x="72.0" y="313.8"/>
      <point x="72.0" y="197.0" type="curve" smooth="yes"/>
      <point x="72.0" y="144.8"/>
      <point x="72.0" y="90.8"/>
      <point x="72.0" y="38.6" type="curve" smooth="yes"/>
      <point x="72.0" y="31.200000000000003"/>
      <point x="74.0" y="28.0"/>
      <point x="79.4" y="22.6" type="curve" smooth="yes"/>
      <point x="101.8" y="0.20000000000000018"/>
      <point x="146.4" y="-10.0"/>
      <point x="188.0" y="-10.0" type="curve" smooth="yes"/>
    </contour>
    <contour>
      <point x="387.2" y="552.0" type="curve" smooth="yes"/>
      <point x="328.4" y="552.0"/>
      <point x="241.6" y="481.0"/>
      <point x="194.0" y="424.0" type="curve" smooth="yes"/>
      <point x="166.8" y="391.8"/>
      <point x="162.2" y="377.2"/>
      <point x="162.6" y="320.2" type="curve"/>
      <point x="250.8" y="393.4"/>
      <point x="306.0" y="414.0"/>
      <point x="379.0" y="414.0" type="curve" smooth="yes"/>
      <point x="421.2" y="414.0"/>
      <point x="452.2" y="398.8"/>
      <point x="474.8" y="361.4" type="curve"/>
      <point x="508.0" y="366.6"/>
      <point x="523.0" y="393.0"/>
      <point x="523.0" y="413.0" type="curve" smooth="yes"/>
      <point x="523.0" y="467.2"/>
      <point x="451.2" y="552.0"/>
    </contour>
    <contour>
      <point x="523.0" y="-10.0" type="line"/>
      <point x="523.0" y="137.8"/>
      <point x="523.0" y="265.2"/>
      <point x="523.0" y="413.0" type="curve" smooth="yes"/>
      <point x="523.0" y="420.4"/>
      <point x="521.0" y="423.6"/>
      <point x="515.6" y="429.0" type="curve" smooth="yes"/>
      <point x="493.2" y="451.4"/>
      <point x="448.6" y="461.6"/>
      <point x="407.0" y="461.6" type="curve" smooth="yes"/>
      <point x="385.0" y="461.6" type="line"/>
      <point x="385.0" y="367.8"/>
      <point x="385.0" y="291.6"/>
      <point x="385.0" y="197.0" type="curve" smooth="yes"/>
      <point x="385.0" y="144.8"/>
      <point x="385.0" y="90.8"/>
      <point x="385.0" y="38.6" type="curve" smooth="yes"/>
      <point x="385.0" y="31.200000000000003"/>
      <point x="387.0" y="28.0"/>
      <point x="392.4" y="22.6" type="curve" smooth="yes"/>
      <point x="414.8" y="0.20000000000000018"/>
      <point x="459.4" y="-10.0"/>
      <point x="501.0" y="-10.0" type="curve" smooth="yes"/>
    </contour>
    <contour>
      <point x="692.2" y="552.0" type="curve" smooth="yes"/>
      <point x="633.4" y="552.0"/>
      <point x="546.6" y="481.0"/>
      <point x="499.0" y="424.0" type="curve" smooth="yes"/>
      <point x="471.8" y="391.8"/>
      <point x="467.2" y="377.2"/>
      <point x="467.6" y="320.2" type="curve"/>
      <point x="555.8" y="393.4"/>
      <point x="611.0" y="414.0"/>
      <point x="684.0" y="414.0" type="curve" smooth="yes"/>
      <point x="726.2" y="414.0"/>
      <point x="757.2" y="398.8"/>
      <point x="779.8" y="361.4" type="curve"/>
      <point x="813.0" y="366.6"/>
      <point x="828.0" y="393.0"/>
      <point x="828.0" y="413.0" type="curve" smooth="yes"/>
      <point x="828.0" y="467.2"/>
      <point x="756.2" y="552.0"/>
    </contour>
    <contour>
      <point x="828.0" y="-10.0" type="line"/>
      <point x="828.0" y="137.8"/>
      <point x="828.0" y="265.2"/>
      <point x="828.0" y="413.0" type="curve" smooth="yes"/>
      <point x="828.0" y="420.4"/>
      <point x="826.0" y="423.6"/>
      <point x="820.6" y="429.0" type="curve" smooth="yes"/>
      <point x="798.2" y="451.4"/>
      <point x="753.6" y="461.6"/>
      <point x="712.0" y="461.6" type="curve" smooth="yes"/>
      <point x="690.0" y="461.6" type="line"/>
      <point x="690.0" y="367.8"/>
      <point x="690.0" y="291.6"/>
      <point x="690.0" y="197.0" type="curve" smooth="yes"/>
      <point x="690.0" y="144.8"/>
      <point x="690.0" y="90.8"/>
      <point x="690.0" y="38.6" type="curve" smooth="yes"/>
      <point x="690.0" y="31.200000000000003"/>
      <point x="692.0" y="28.0"/>
      <point x="697.4" y="22.6" type="curve" smooth="yes"/>
      <point x="719.8" y="0.20000000000000018"/>
      <point x="764.4" y="-10.0"/>
      <point x="806.0" y="-10.0" type="curve" smooth="yes"/>
    </contour>
  </outline>
</glyph>
<glyph name="n" format="2">
  <advance width="600.0"/>
  <unicode hex="006E"/>
  <outline>
    <contour>
      <point x="210.0" y="-10.0" type="line"/>
      <point x="210.0" y="163.13333333333333"/>
      <point x="210.0" y="336.3347022587269"/>
      <point x="210.0" y="509.4" type="curve" smooth="yes"/>
      <point x="210.0" y="516.8"/>
      <point x="208.0" y="520.0"/>
      <point x="202.6" y="525.4" type="curve" smooth="yes"/>
      <point x="189.8" y="538.2"/>
      <point x="135.6" y="550.0"/>
      <point x="94.0" y="550.0" type="curve" smooth="yes"/>
      <point x="72.0" y="550.0" type="line"/>
      <point x="72.0" y="433.1333333333333"/>
      <point x="72.0" y="313.8666666666667"/>
      <point x="72.0" y="197.0" type="curve" smooth="yes"/>
      <point x="72.0" y="144.73333333333335"/>
      <point x="72.0" y="90.86666666666667"/>
      <point x="72.0" y="38.6" type="curve" smooth="yes"/>
      <point x="72.0" y="31.200000000000003"/>
      <point x="74.0" y="28.0"/>
      <point x="79.4" y="22.6" type="curve" smooth="yes"/>
      <point x="101.8" y="0.20000000000000018"/>
      <point x="146.4" y="-10.0"/>
      <point x="188.0" y="-10.0" type="curve" smooth="yes"/>
    </contour>
    <contour>
      <point x="391.2" y="552.0" type="curve" smooth="yes"/>
      <point x="332.4" y="552.0"/>
      <point x="241.6" y="481.0"/>
      <point x="194.0" y="424.0" type="curve" smooth="yes"/>
      <point x="166.8" y="391.8"/>
      <point x="162.2" y="377.2"/>
      <point x="162.6" y="320.2" type="curve"/>
      <point x="250.8" y="393.4"/>
      <point x="310.0" y="414.0"/>
      <point x="383.0" y="414.0" type="curve" smooth="yes"/>
      <point x="425.2" y="414.0"/>
      <point x="457.2" y="398.8"/>
      <point x="483.8" y="365.4" type="curve"/>
      <point x="513.0" y="366.6"/>
      <point x="528.0" y="393.0"/>
      <point x="528.0" y="413.0" type="curve" smooth="yes"/>
      <point x="528.0" y="467.2"/>
      <point x="455.2" y="552.0"/>
    </contour>
    <contour>
      <point x="528.0" y="-10.0" type="line"/>
      <point x="528.0" y="137.76258992805757"/>
      <point x="528.0" y="265.23741007194246"/>
      <point x="528.0" y="413.0" type="curve" smooth="yes"/>
      <point x="528.0" y="420.4"/>
      <point x="526.0" y="423.6"/>
      <point x="520.6" y="429.0" type="curve" smooth="yes"/>
      <point x="498.2" y="451.4"/>
      <point x="453.6" y="461.6"/>
      <point x="412.0" y="461.6" type="curve" smooth="yes"/>
      <point x="390.0" y="461.6" type="line"/>
      <point x="390.0" y="367.8"/>
      <point x="390.0" y="291.6"/>
      <point x="390.0" y="197.0" type="curve" smooth="yes"/>
      <point x="390.0" y="144.73333333333335"/>
      <point x="390.0" y="90.86666666666667"/>
      <point x="390.0" y="38.6" type="curve" smooth="yes"/>
      <point x="390.0" y="31.200000000000003"/>
      <point x="392.0" y="28.0"/>
      <point x="397.4" y="22.6" type="curve" smooth="yes"/>
      <point x="419.8" y="0.20000000000000018"/>
      <point x="464.4" y="-10.0"/>
      <point x="506.0" y="-10.0" type="curve" smooth="yes"/>
    </contour>
  </outline>
</glyph>
<glyph name="o" format="2">
  <advance width="600.0"/>
  <unicode hex="006F"/>
  <outline>
    <contour>
      <point x="292.0" y="560.0" type="curve" smooth="yes"/>
      <point x="152.43377777777778" y="560.0"/>
      <point x="53.0" y="451.1510204081633"/>
      <point x="53.0" y="293.0" type="curve" smooth="yes"/>
      <point x="53.0" y="251.0" type="line" smooth="yes"/>
      <point x="53.0" y="86.6"/>
      <point x="161.2058829165469" y="-20.0"/>
      <point x="285.6" y="-20.0" type="curve" smooth="yes"/>
      <point x="308.0" y="-20.0" type="line" smooth="yes"/>
      <point x="342.2" y="-20.0"/>
      <point x="363.6" y="14.0"/>
      <point x="363.6" y="61.2" type="curve"/>
      <point x="233.52579927685312" y="65.40171093049962"/>
      <point x="183.0" y="125.4"/>
      <point x="183.0" y="224.4" type="curve" smooth="yes"/>
      <point x="183.0" y="269.0" type="line" smooth="yes"/>
      <point x="183.0" y="357.2"/>
      <point x="229.88478260869564" y="430.8"/>
      <point x="321.0" y="430.8" type="curve" smooth="yes"/>
      <point x="373.6" y="430.8"/>
      <point x="391.6" y="425.4"/>
      <point x="421.0" y="410.0" type="curve"/>
      <point x="434.2" y="422.0"/>
      <point x="436.4" y="427.0"/>
      <point x="436.4" y="450.6" type="curve"/>
      <point x="436.4" y="507.8"/>
      <point x="360.18208955223884" y="560.0"/>
    </contour>
    <contour>
      <point x="308.0" y="-20.0" type="curve" smooth="yes"/>
      <point x="447.6" y="-20.0"/>
      <point x="547.0" y="88.84897959183674"/>
      <point x="547.0" y="247.0" type="curve" smooth="yes"/>
      <point x="547.0" y="289.0" type="line" smooth="yes"/>
      <point x="547.0" y="453.4"/>
      <point x="439.0" y="560.0"/>
      <point x="314.4" y="560.0" type="curve" smooth="yes"/>
      <point x="292.0" y="560.0" type="line" smooth="yes"/>
      <point x="257.8" y="560.0"/>
      <point x="236.4" y="526.0"/>
      <point x="236.4" y="478.8" type="curve"/>
      <point x="366.4" y="474.6"/>
      <point x="417.0" y="414.6"/>
      <point x="417.0" y="315.6" type="curve" smooth="yes"/>
      <point x="417.0" y="271.0" type="line" smooth="yes"/>
      <point x="417.0" y="182.8"/>
      <point x="370.2" y="109.2"/>
      <point x="279.0" y="109.2" type="curve" smooth="yes"/>
      <point x="226.4" y="109.2"/>
      <point x="208.4" y="114.60000000000001"/>
      <point x="179.0" y="130.0" type="curve"/>
      <point x="165.8" y="118.0"/>
      <point x="163.6" y="113.0"/>
      <point x="163.6" y="89.4" type="curve"/>
      <point x="163.6" y="32.2"/>
      <point x="239.4" y="-20.0"/>
    </contour>
  </outline>
</glyph>
<glyph name="p" format="2">
  <advance width="600.0"/>
  <unicode hex="0070"/>
  <outline>
    <contour>
      <point x="210.0" y="-230.0" type="line"/>
      <point x="210.0" y="8.148596750369279"/>
      <point x="210.0" y="269.5367179349454"/>
      <point x="210.0" y="507.4" type="curve" smooth="yes"/>
      <point x="210.0" y="514.8"/>
      <point x="208.0" y="518.0"/>
      <point x="202.6" y="523.4" type="curve" smooth="yes"/>
      <point x="189.8" y="536.2"/>
      <point x="135.6" y="548.0"/>
      <point x="94.0" y="548.0" type="curve" smooth="yes"/>
      <point x="72.0" y="548.0" type="line"/>
      <point x="72.0" y="431.8"/>
      <point x="72.0" y="313.2"/>
      <point x="72.0" y="197.0" type="curve" smooth="yes"/>
      <point x="72.0" y="80.29089598846986"/>
      <point x="72.0" y="-64.30828729281768"/>
      <point x="72.0" y="-181.4" type="curve" smooth="yes"/>
      <point x="72.0" y="-188.8"/>
      <point x="74.0" y="-192.0"/>
      <point x="79.4" y="-197.4" type="curve" smooth="yes"/>
      <point x="101.8" y="-219.8"/>
      <point x="146.4" y="-230.0"/>
      <point x="188.0" y="-230.0" type="curve" smooth="yes"/>
    </contour>
    <contour>
      <point x="397.2" y="552.0" type="curve" smooth="yes"/>
      <point x="332.8459887583036" y="552.0"/>
      <point x="247.91777286376578" y="489.9603030977447"/>
      <point x="194.0" y="424.0" type="curve" smooth="yes"/>
      <point x="167.6" y="391.8"/>
      <point x="162.2" y="377.2"/>
      <point x="162.6" y="320.2" type="curve"/>
      <point x="252.44038981331593" y="394.57199239302776"/>
      <point x="314.09291208336776" y="414.0"/>
      <point x="389.0" y="414.0" type="curve" smooth="yes"/>
      <point x="441.0" y="414.0"/>
      <point x="471.0" y="377.6"/>
      <point x="502.8" y="322.8" type="curve"/>
      <point x="536.0" y="323.6"/>
      <point x="555.0" y="349.4"/>
      <point x="555.0" y="369.2" type="curve" smooth="yes"/>
      <point x="555.0" y="462.2"/>
      <point x="469.0" y="552.0"/>
    </contour>
    <contour>
      <point x="340.0" y="-20.0" type="curve" smooth="yes"/>
      <point x="478.59627906976743" y="-20.0"/>
      <point x="555.0" y="137.6"/>
      <point x="555.0" y="329.0" type="curve" smooth="yes"/>
      <point x="555.0" y="369.2" type="line" smooth="yes"/>
      <point x="555.0" y="413.6"/>
      <point x="516.4" y="479.6"/>
      <point x="461.2" y="479.6" type="curve"/>
      <point x="420.2" y="479.6"/>
      <point x="388.8" y="469.0"/>
      <point x="388.4" y="440.2" type="curve"/>
      <point x="404.2" y="419.8"/>
      <point x="413.0" y="398.4"/>
      <point x="413.0" y="351.2" type="curve" smooth="yes"/>
      <point x="413.0" y="329.0" type="line" smooth="yes"/>
      <point x="413.0" y="194.4"/>
      <point x="355.53333333333336" y="106.0"/>
      <point x="280.0" y="106.0" type="curve" smooth="yes"/>
      <point x="246.2" y="106.0"/>
      <point x="220.8" y="108.4"/>
      <point x="195.0" y="113.6" type="curve"/>
      <point x="190.6" y="110.4"/>
      <point x="189.2" y="107.0"/>
      <point x="189.2" y="99.4" type="curve"/>
      <point x="189.2" y="59.61574803149607"/>
      <point x="263.4" y="-20.0"/>
    </contour>
  </outline>
</glyph>
<glyph name="q" format="2">
  <advance width="600.0"/>
  <unicode hex="0071"/>
  <outline>
    <contour>
      <point x="528.0" y="-230.0" type="line"/>
      <point x="528.0" y="8.543522561863185"/>
      <point x="528.0" y="271.1417921234515"/>
      <point x="528.0" y="509.4" type="curve" smooth="yes"/>
      <point x="528.0" y="516.8"/>
      <point x="526.0" y="520.0"/>
      <point x="520.6" y="525.4" type="curve" smooth="yes"/>
      <point x="507.8" y="538.2"/>
      <point x="453.6" y="550.0"/>
      <point x="412.0" y="550.0" type="curve" smooth="yes"/>
      <point x="390.0" y="550.0" type="line"/>
      <point x="390.0" y="441.8"/>
      <point x="390.0" y="331.2"/>
      <point x="390.0" y="223.0" type="curve" smooth="yes"/>
      <point x="390.0" y="93.36543209876542"/>
      <point x="390.0" y="-51.492063492063494"/>
      <point x="390.0" y="-181.4" type="curve" smooth="yes"/>
      <point x="390.0" y="-188.8"/>
      <point x="392.0" y="-192.0"/>
      <point x="397.4" y="-197.4" type="curve" smooth="yes"/>
      <point x="419.8" y="-219.8"/>
      <point x="464.4" y="-230.0"/>
      <point x="506.0" y="-230.0" type="curve" smooth="yes"/>
    </contour>
    <contour>
      <point x="260.0" y="560.0" type="curve" smooth="yes"/>
      <point x="151.44" y="560.0"/>
      <point x="47.0" y="456.4"/>
      <point x="47.0" y="233.0" type="curve" smooth="yes"/>
      <point x="47.0" y="186.8" type="line" smooth="yes"/>
      <point x="47.0" y="139.4"/>
      <point x="89.4" y="68.6"/>
      <point x="163.0" y="68.6" type="curve"/>
      <point x="188.8" y="68.6"/>
      <point x="209.0" y="77.6"/>
      <point x="209.4" y="102.4" type="curve"/>
      <point x="194.4" y="122.4"/>
      <point x="189.0" y="155.8"/>
      <point x="189.0" y="220.8" type="curve" smooth="yes"/>
      <point x="189.0" y="235.0" type="line" smooth="yes"/>
      <point x="189.0" y="366.2"/>
      <point x="224.48" y="434.0"/>
      <point x="299.6" y="434.0" type="curve" smooth="yes"/>
      <point x="345.6" y="434.0"/>
      <point x="369.4" y="428.4"/>
      <point x="404.6" y="412.4" type="curve"/>
      <point x="414.6" y="416.4"/>
      <point x="414.4" y="442.2"/>
      <point x="404.8" y="457.0" type="curve"/>
      <point x="379.79621357172084" y="503.7277088115576"/>
      <point x="327.12" y="560.0"/>
    </contour>
    <contour>
      <point x="202.8" y="-12.0" type="curve" smooth="yes"/>
      <point x="262.943484925907" y="-12.0"/>
      <point x="358.35563419595235" y="57.02714374751029"/>
      <point x="406.0" y="114.0" type="curve" smooth="yes"/>
      <point x="433.2" y="146.2"/>
      <point x="437.8" y="160.8"/>
      <point x="437.4" y="217.8" type="curve"/>
      <point x="348.3554479166799" y="144.26057254902958"/>
      <point x="285.90708791663224" y="126.0"/>
      <point x="211.0" y="126.0" type="curve" smooth="yes"/>
      <point x="155.4" y="126.0"/>
      <point x="135.4" y="174.0"/>
      <point x="94.0" y="238.0" type="curve"/>
      <point x="61.8" y="237.2"/>
      <point x="47.0" y="209.0"/>
      <point x="47.0" y="186.8" type="curve" smooth="yes"/>
      <point x="47.0" y="82.6"/>
      <point x="121.0" y="-12.0"/>
    </contour>
  </outline>
</glyph>
<glyph name="r" format="2">
  <advance width="600.0"/>
  <unicode hex="0072"/>
  <outline>
    <contour>
      <point x="400.2" y="560.0" type="curve" smooth="yes"/>
      <point x="351.0821362799263" y="560.0"/>
      <point x="279.4123782566282" y="487.01685549838726"/>
      <point x="234.0" y="424.6" type="curve" smooth="yes"/>
      <point x="209.2" y="390.6"/>
      <point x="202.2" y="377.4"/>
      <point x="202.6" y="320.2" type="curve"/>
      <point x="283.6502587627934" y="387.9059813881497"/>
      <point x="328.9089620391195" y="414.0"/>
      <point x="392.0" y="414.0" type="curve" smooth="yes"/>
      <point x="434.1333333333333" y="414.0"/>
      <point x="466.12701266078324" y="398.7798447213091"/>
      <point x="492.8" y="365.4" type="curve"/>
      <point x="522.0" y="366.6"/>
      <point x="537.0" y="393.0"/>
      <point x="537.0" y="413.0" type="curve" smooth="yes"/>
      <point x="537.0" y="470.2810810810811"/>
      <point x="464.22985074626865" y="560.0"/>
    </contour>
    <contour>
      <point x="537.0" y="228.0" type="line"/>
      <point x="537.0" y="292.0"/>
      <point x="537.0" y="348.2"/>
      <point x="537.0" y="413.0" type="curve" smooth="yes"/>
      <point x="537.0" y="420.4"/>
      <point x="535.0" y="423.6"/>
      <point x="529.6" y="429.0" type="curve" smooth="yes"/>
      <point x="507.2" y="451.4"/>
      <point x="462.6" y="461.6"/>
      <point x="421.0" y="461.6" type="curve" smooth="yes"/>
      <point x="399.0" y="461.6" type="line"/>
      <point x="399.0" y="397.8"/>
      <point x="399.0" y="340.4"/>
      <point x="399.0" y="276.6" type="curve" smooth="yes"/>
      <point x="399.0" y="269.2"/>
      <point x="401.0" y="266.0"/>
      <point x="406.4" y="260.6" type="curve" smooth="yes"/>
      <point x="428.8" y="238.2"/>
      <point x="473.4" y="228.0"/>
      <point x="515.0" y="228.0" type="curve" smooth="yes"/>
    </contour>
    <contour>
      <point x="30.0" y="540.0" type="curve"/>
      <point x="30.0" y="518.0" type="line" smooth="yes"/>
      <point x="30.0" y="461.2"/>
      <point x="36.2" y="431.8"/>
      <point x="50.6" y="417.4" type="curve" smooth="yes"/>
      <point x="56.0" y="412.0"/>
      <point x="59.2" y="410.0"/>
      <point x="66.6" y="410.0" type="curve"/>
      <point x="103.6867469879518" y="410.0"/>
      <point x="144.97669902912622" y="410.0"/>
      <point x="181.2" y="410.0" type="curve"/>
      <point x="181.2" y="432.0" type="line" smooth="yes"/>
      <point x="181.2" y="455.2"/>
      <point x="161.4" y="503.8"/>
      <point x="132.6" y="532.6" type="curve" smooth="yes"/>
      <point x="127.19999999999999" y="538.0"/>
      <point x="124.0" y="540.0"/>
      <point x="116.6" y="540.0" type="curve" smooth="yes"/>
      <point x="97.37281553398057" y="540.0"/>
      <point x="49.3012048192771" y="540.0"/>
    </contour>
    <contour>
      <point x="250.0" y="-10.0" type="line"/>
      <point x="250.0" y="123.2"/>
      <point x="250.0" y="256.2"/>
      <point x="250.0" y="389.4" type="curve"/>
      <point x="250.0" y="442.6"/>
      <point x="195.2" y="540.0"/>
      <point x="142.0" y="540.0" type="curve" smooth="yes"/>
      <point x="112.0" y="540.0" type="line"/>
      <point x="112.0" y="466.0"/>
      <point x="112.0" y="307.4"/>
      <point x="112.0" y="236.4" type="curve" smooth="yes"/>
      <point x="112.0" y="170.6"/>
      <point x="112.0" y="104.0"/>
      <point x="112.0" y="38.6" type="curve"/>
      <point x="112.0" y="31.200000000000003"/>
      <point x="114.0" y="28.0"/>
      <point x="119.4" y="22.6" type="curve" smooth="yes"/>
      <point x="141.8" y="0.20000000000000018"/>
      <point x="186.4" y="-10.0"/>
      <point x="228.0" y="-10.0" type="curve" smooth="yes"/>
    </contour>
  </outline>
</glyph>
<glyph name="s" format="2">
  <advance width="600.0"/>
  <unicode hex="0073"/>
  <outline>
    <contour>
      <point x="375.2" y="560.0" type="curve" smooth="yes"/>
      <point x="231.0" y="560.0"/>
      <point x="80.0" y="476.8"/>
      <point x="80.0" y="376.4" type="curve" smooth="yes"/>
      <point x="80.0" y="349.8" type="line" smooth="yes"/>
      <point x="80.0" y="315.56"/>
      <point x="140.6677966101695" y="297.4"/>
      <point x="211.4" y="297.4" type="curve"/>
      <point x="210.22169057619115" y="313.0523008297157"/>
      <point x="210.0" y="343.8"/>
      <point x="210.0" y="363.0" type="curve" smooth="yes"/>
      <point x="210.0" y="400.46666666666664"/>
      <point x="287.6" y="430.0"/>
      <point x="367.8" y="430.0" type="curve" smooth="yes"/>
      <point x="427.0" y="430.0"/>
      <point x="468.0" y="418.4"/>
      <point x="497.8" y="402.0" type="curve"/>
      <point x="520.0" y="402.0" type="line"/>
      <point x="520.0" y="509.2" type="line"/>
      <point x="520.0" y="536.0"/>
      <point x="462.8" y="560.0"/>
    </contour>
    <contour>
      <point x="394.8" y="305.4" type="curve" smooth="yes"/>
      <point x="301.2" y="324.8" type="line" smooth="yes"/>
      <point x="226.26544707505823" y="340.0883278601598"/>
      <point x="210.0" y="345.0"/>
      <point x="210.0" y="363.0" type="curve" smooth="yes"/>
      <point x="210.0" y="379.2"/>
      <point x="213.2" y="406.4"/>
      <point x="232.8" y="427.0" type="curve"/>
      <point x="138.35240034332185" y="424.4535460665725"/>
      <point x="80.0" y="394.1347126436782"/>
      <point x="80.0" y="349.8" type="curve"/>
      <point x="80.0" y="295.95217478991594"/>
      <point x="127.68105037755586" y="254.87370879892853"/>
      <point x="239.4" y="229.8" type="curve" smooth="yes"/>
      <point x="350.8" y="204.6" type="line" smooth="yes"/>
      <point x="434.9289749201346" y="185.74929047755364"/>
      <point x="457.32742176010794" y="161.460490700812"/>
      <point x="474.0" y="108.2" type="curve"/>
      <point x="515.9559013076426" y="107.81202691609745"/>
      <point x="544.8" y="138.2929955290611"/>
      <point x="544.8" y="168.8" type="curve"/>
      <point x="544.8" y="244.47947540983608"/>
      <point x="500.6487550707472" y="283.4575657278392"/>
    </contour>
    <contour>
      <point x="309.0" y="-20.0" type="line" smooth="yes"/>
      <point x="459.8" y="-20.0"/>
      <point x="544.8" y="35.2"/>
      <point x="544.8" y="124.6" type="curve" smooth="yes"/>
      <point x="544.8" y="168.8" type="line"/>
      <point x="544.8" y="194.22222222222223"/>
      <point x="514.4495486948955" y="197.57470987528995"/>
      <point x="471.2" y="180.0" type="curve"/>
      <point x="457.4" y="132.60000000000002"/>
      <point x="410.4" y="110.0"/>
      <point x="300.0" y="110.0" type="curve" smooth="yes"/>
      <point x="185.6" y="110.0"/>
      <point x="135.0" y="119.2"/>
      <point x="77.6" y="160.0" type="curve"/>
      <point x="55.4" y="160.0" type="line"/>
      <point x="55.4" y="124.6"/>
      <point x="55.4" y="88.0"/>
      <point x="55.4" y="52.2" type="curve"/>
      <point x="55.4" y="14.2"/>
      <point x="128.6" y="-20.0"/>
      <point x="274.2" y="-20.0" type="curve" smooth="yes"/>
    </contour>
  </outline>
</glyph>
<glyph name="t" format="2">
  <advance width="600.0"/>
  <unicode hex="0074"/>
  <outline>
    <contour>
      <point x="544.6" y="180.0" type="line"/>
      <point x="526.4" y="180.0" type="line"/>
      <point x="486.4" y="132.2"/>
      <point x="432.8" y="110.0"/>
      <point x="358.2" y="110.0" type="curve" smooth="yes"/>
      <point x="303.8" y="110.0"/>
      <point x="257.4" y="111.8"/>
      <point x="218.8" y="121.2" type="curve"/>
      <point x="195.0" y="100.4"/>
      <point x="207.2" y="62.8"/>
      <point x="234.0" y="36.0" type="curve" smooth="yes"/>
      <point x="277.4" y="-7.4"/>
      <point x="296.8" y="-20.0"/>
      <point x="335.0" y="-20.0" type="curve" smooth="yes"/>
      <point x="346.0" y="-20.0"/>
      <point x="358.8" y="-20.0"/>
      <point x="369.8" y="-20.0" type="curve" smooth="yes"/>
      <point x="432.2" y="-20.0"/>
      <point x="489.2" y="0.8"/>
      <point x="521.2" y="32.8" type="curve" smooth="yes"/>
      <point x="536.0" y="47.6"/>
      <point x="544.6" y="68.2"/>
      <point x="544.6" y="97.8" type="curve"/>
    </contour>
    <contour>
      <point x="30.0" y="540.0" type="curve"/>
      <point x="30.0" y="486.0" type="line" smooth="yes"/>
      <point x="30.0" y="460.4"/>
      <point x="38.6" y="433.4"/>
      <point x="54.6" y="417.4" type="curve" smooth="yes"/>
      <point x="60.0" y="412.0"/>
      <point x="63.2" y="410.0"/>
      <point x="70.6" y="410.0" type="curve"/>
      <point x="129.86666666666667" y="410.0"/>
      <point x="198.73333333333335" y="410.0"/>
      <point x="258.0" y="410.0" type="curve"/>
      <point x="340.12692307692305" y="410.0"/>
      <point x="462.87307692307695" y="410.0"/>
      <point x="545.0" y="410.0" type="curve"/>
      <point x="545.0" y="432.0" type="line" smooth="yes"/>
      <point x="545.0" y="473.6"/>
      <point x="534.8" y="510.2"/>
      <point x="512.4" y="532.6" type="curve" smooth="yes"/>
      <point x="507.0" y="538.0"/>
      <point x="503.8" y="540.0"/>
      <point x="496.4" y="540.0" type="curve" smooth="yes"/>
      <point x="355.0" y="540.0"/>
      <point x="171.4" y="540.0"/>
    </contour>
    <contour>
      <point x="302.6" y="667.4" type="curve" smooth="yes"/>
      <point x="280.2" y="689.8"/>
      <point x="243.6" y="700.0"/>
      <point x="202.0" y="700.0" type="curve" smooth="yes"/>
      <point x="180.0" y="700.0" type="line"/>
      <point x="180.0" y="148.8" type="line" smooth="yes"/>
      <point x="180.0" y="101.4"/>
      <point x="191.2" y="78.80000000000001"/>
      <point x="234.0" y="36.0" type="curve"/>
      <point x="264.2" y="5.8"/>
      <point x="301.6" y="3.1999999999999993"/>
      <point x="315.2" y="21.2" type="curve"/>
      <point x="311.4" y="63.0"/>
      <point x="310.0" y="108.6"/>
      <point x="310.0" y="156.4" type="curve" smooth="yes"/>
      <point x="310.0" y="651.4" type="line" smooth="yes"/>
      <point x="310.0" y="658.8"/>
      <point x="308.0" y="662.0"/>
    </contour>
  </outline>
</glyph>
<glyph name="u" format="2">
  <advance width="600.0"/>
  <unicode hex="0075"/>
  <outline>
    <contour>
      <point x="390.0" y="550.0" type="line"/>
      <point x="390.0" y="376.93470225872693"/>
      <point x="390.0" y="203.73333333333335"/>
      <point x="390.0" y="30.6" type="curve" smooth="yes"/>
      <point x="390.0" y="23.200000000000003"/>
      <point x="392.0" y="20.0"/>
      <point x="397.4" y="14.600000000000001" type="curve" smooth="yes"/>
      <point x="410.2" y="1.8000000000000007"/>
      <point x="464.4" y="-10.0"/>
      <point x="506.0" y="-10.0" type="curve" smooth="yes"/>
      <point x="528.0" y="-10.0" type="line"/>
      <point x="528.0" y="106.86666666666666"/>
      <point x="528.0" y="226.13333333333333"/>
      <point x="528.0" y="343.0" type="curve" smooth="yes"/>
      <point x="528.0" y="395.26666666666665"/>
      <point x="528.0" y="449.1333333333333"/>
      <point x="528.0" y="501.4" type="curve" smooth="yes"/>
      <point x="528.0" y="508.8"/>
      <point x="526.0" y="512.0"/>
      <point x="520.6" y="517.4" type="curve" smooth="yes"/>
      <point x="498.2" y="539.8"/>
      <point x="453.6" y="550.0"/>
      <point x="412.0" y="550.0" type="curve" smooth="yes"/>
    </contour>
    <contour>
      <point x="208.8" y="-12.0" type="curve" smooth="yes"/>
      <point x="267.6" y="-12.0"/>
      <point x="358.4" y="59.0"/>
      <point x="406.0" y="116.0" type="curve" smooth="yes"/>
      <point x="433.2" y="148.2"/>
      <point x="437.8" y="162.8"/>
      <point x="437.4" y="219.8" type="curve"/>
      <point x="349.2" y="146.60000000000002"/>
      <point x="290.0" y="126.0"/>
      <point x="217.0" y="126.0" type="curve" smooth="yes"/>
      <point x="174.8" y="126.0"/>
      <point x="142.8" y="141.2"/>
      <point x="116.2" y="174.60000000000002" type="curve"/>
      <point x="87.0" y="173.4"/>
      <point x="72.0" y="147.0"/>
      <point x="72.0" y="127.0" type="curve" smooth="yes"/>
      <point x="72.0" y="72.80000000000001"/>
      <point x="144.8" y="-12.0"/>
    </contour>
    <contour>
      <point x="72.0" y="550.0" type="line"/>
      <point x="72.0" y="402.23741007194246"/>
      <point x="72.0" y="274.76258992805754"/>
      <point x="72.0" y="127.0" type="curve" smooth="yes"/>
      <point x="72.0" y="119.6"/>
      <point x="74.0" y="116.4"/>
      <point x="79.4" y="111.0" type="curve" smooth="yes"/>
      <point x="101.8" y="88.6"/>
      <point x="146.4" y="78.4"/>
      <point x="188.0" y="78.4" type="curve" smooth="yes"/>
      <point x="210.0" y="78.4" type="line"/>
      <point x="210.0" y="172.2"/>
      <point x="210.0" y="248.4"/>
      <point x="210.0" y="343.0" type="curve" smooth="yes"/>
      <point x="210.0" y="395.26666666666665"/>
      <point x="210.0" y="449.1333333333333"/>
      <point x="210.0" y="501.4" type="curve" smooth="yes"/>
      <point x="210.0" y="508.8"/>
      <point x="208.0" y="512.0"/>
      <point x="202.6" y="517.4" type="curve" smooth="yes"/>
      <point x="180.2" y="539.8"/>
      <point x="135.6" y="550.0"/>
      <point x="94.0" y="550.0" type="curve" smooth="yes"/>
    </contour>
  </outline>
</glyph>
<glyph name="v" format="2">
  <advance width="600.0"/>
  <unicode hex="0076"/>
  <outline>
    <contour>
      <point x="431.0" y="550.0" type="curve" smooth="yes"/>
      <point x="409.8" y="550.0" type="line"/>
      <point x="385.0130014471673" y="284.537822968287"/>
      <point x="353.94908006594403" y="175.79474844129734"/>
      <point x="255.4" y="94.4" type="curve" smooth="yes"/>
      <point x="231.82912832808483" y="74.91376137496675"/>
      <point x="253.56164383561645" y="-10.0"/>
      <point x="306.8" y="-10.0" type="curve"/>
      <point x="345.0" y="-10.0" type="line"/>
      <point x="452.2666478131964" y="78.41869094204844"/>
      <point x="522.2077925169331" y="259.28600269053373"/>
      <point x="542.6" y="485.4" type="curve" smooth="yes"/>
      <point x="546.0" y="522.4"/>
      <point x="488.2" y="550.0"/>
    </contour>
    <contour>
      <point x="74.2" y="550.0" type="curve" smooth="yes"/>
      <point x="53.0" y="550.0" type="line"/>
      <point x="76.25723226142182" y="287.05342223505534"/>
      <point x="117.6" y="127.8"/>
      <point x="213.0" y="32.400000000000006" type="curve" smooth="yes"/>
      <point x="249.8" y="-4.4"/>
      <point x="280.0" y="-10.0"/>
      <point x="306.8" y="-10.0" type="curve"/>
      <point x="345.1028571428571" y="-10.0"/>
      <point x="368.0" y="3.4"/>
      <point x="368.0" y="60.6" type="curve"/>
      <point x="259.1000959341901" y="131.5582453936591"/>
      <point x="221.4897762030917" y="243.81161573830997"/>
      <point x="194.60000000000002" y="506.2" type="curve" smooth="yes"/>
      <point x="192.0" y="531.2"/>
      <point x="131.4" y="550.0"/>
    </contour>
  </outline>
</glyph>
<glyph name="w" format="2">
  <advance width="900.0"/>
  <unicode hex="0077"/>
  <guideline x="96.19999999999999" y="85.59999999999997" angle="90.0" identifier="24drJOKHsl"/>
  <guideline x="133.39999999999998" y="10.199999999999996" angle="90.0" identifier="5Z8gD6m6Wp"/>
  <outline>
    <contour>
      <point x="176.4" y="522.6" type="curve" smooth="yes"/>
      <point x="157.6" y="541.4"/>
      <point x="105.8" y="550.0"/>
      <point x="64.2" y="550.0" type="curve" smooth="yes"/>
      <point x="43.0" y="550.0" type="line"/>
      <point x="64.2" y="293.4"/>
      <point x="85.4" y="138.6"/>
      <point x="171.4" y="51.6" type="curve" smooth="yes"/>
      <point x="224.0" y="-1.2"/>
      <point x="256.8" y="-10.0"/>
      <point x="286.8" y="-10.0" type="curve"/>
      <point x="322.2" y="-10.0"/>
      <point x="343.2" y="3.4"/>
      <point x="343.2" y="59.0" type="curve"/>
      <point x="239.2" y="127.4"/>
      <point x="207.0" y="242.8"/>
      <point x="184.8" y="503.8" type="curve" smooth="yes"/>
      <point x="183.8" y="514.0"/>
      <point x="182.0" y="517.0"/>
    </contour>
    <contour>
      <point x="486.4" y="405.2" type="curve" smooth="yes"/>
      <point x="467.93077301263963" y="423.66922698736033"/>
      <point x="441.76666666666665" y="440.0"/>
      <point x="413.6" y="440.0" type="curve" smooth="yes"/>
      <point x="392.4" y="440.0" type="line"/>
      <point x="370.6" y="236.2"/>
      <point x="332.8" y="159.0"/>
      <point x="250.6" y="86.4" type="curve"/>
      <point x="232.0833657851706" y="69.61196502960256"/>
      <point x="250.04" y="-10.0"/>
      <point x="286.8" y="-10.0" type="curve"/>
      <point x="325.0" y="-10.0" type="line"/>
      <point x="410.0" y="65.0"/>
      <point x="471.6" y="205.4"/>
      <point x="492.0" y="383.4" type="curve"/>
      <point x="492.8" y="392.4"/>
      <point x="491.8" y="399.8"/>
    </contour>
    <contour>
      <point x="495.4" y="490.8" type="curve" smooth="yes"/>
      <point x="477.6" y="508.6"/>
      <point x="429.8" y="518.0"/>
      <point x="391.4" y="518.0" type="curve" smooth="yes"/>
      <point x="370.2" y="518.0" type="line"/>
      <point x="390.2" y="274.2"/>
      <point x="428.6" y="130.4"/>
      <point x="508.6" y="50.400000000000006" type="curve" smooth="yes"/>
      <point x="560.8" y="-1.7999999999999998"/>
      <point x="592.8" y="-10.0"/>
      <point x="622.8" y="-10.0" type="curve"/>
      <point x="646.2" y="-10.0"/>
      <point x="660.2" y="3.5999999999999996"/>
      <point x="660.2" y="59.2" type="curve"/>
      <point x="562.8" y="124.8"/>
      <point x="525.2" y="229.2"/>
      <point x="504.0" y="471.8" type="curve" smooth="yes"/>
      <point x="502.8" y="482.4"/>
      <point x="501.0" y="485.2"/>
    </contour>
    <contour>
      <point x="846.8" y="507.6" type="curve" smooth="yes"/>
      <point x="821.8" y="532.6"/>
      <point x="782.5058823529412" y="550.0"/>
      <point x="741.0" y="550.0" type="curve" smooth="yes"/>
      <point x="719.8" y="550.0" type="line"/>
      <point x="695.0" y="284.6"/>
      <point x="666.6" y="172.8"/>
      <point x="570.8" y="94.80000000000001" type="curve"/>
      <point x="548.2" y="74.60000000000001"/>
      <point x="571.6" y="-10.0"/>
      <point x="622.8" y="-10.0" type="curve"/>
      <point x="661.0" y="-10.0" type="line"/>
      <point x="766.6" y="77.0"/>
      <point x="831.4" y="259.2"/>
      <point x="852.6" y="484.8" type="curve" smooth="yes"/>
      <point x="853.6" y="494.8"/>
      <point x="852.4" y="502.0"/>
    </contour>
  </outline>
</glyph>
<glyph name="x" format="2">
  <advance width="600.0"/>
  <unicode hex="0078"/>
  <outline>
    <contour>
      <point x="510.2" y="-10.0" type="curve" smooth="yes"/>
      <point x="549.8" y="-10.0"/>
      <point x="566.0" y="6.4"/>
      <point x="566.0" y="46.8" type="curve"/>
      <point x="566.0" y="128.0" type="line"/>
      <point x="488.2" y="146.8"/>
      <point x="436.4" y="176.60000000000002"/>
      <point x="365.0" y="248.0" type="curve" smooth="yes"/>
      <point x="302.2" y="310.8"/>
      <point x="250.6" y="384.2"/>
      <point x="195.4" y="505.4" type="curve" smooth="yes"/>
      <point x="191.60000000000002" y="514.0"/>
      <point x="189.0" y="517.6"/>
      <point x="183.8" y="522.8" type="curve" smooth="yes"/>
      <point x="166.0" y="540.6"/>
      <point x="126.4" y="550.0"/>
      <point x="66.2" y="550.0" type="curve" smooth="yes"/>
      <point x="43.0" y="550.0" type="line"/>
      <point x="83.0" y="400.4"/>
      <point x="165.2" y="263.6"/>
      <point x="281.0" y="145.0" type="curve" smooth="yes"/>
      <point x="381.4" y="44.6"/>
      <point x="463.0" y="-10.0"/>
    </contour>
    <contour>
      <point x="555.4" y="515.4" type="curve" smooth="yes"/>
      <point x="531.4" y="539.4"/>
      <point x="488.2" y="550.0"/>
      <point x="449.0" y="550.0" type="curve" smooth="yes"/>
      <point x="427.8" y="550.0" type="line"/>
      <point x="387.2" y="402.2"/>
      <point x="357.4" y="349.6"/>
      <point x="289.6" y="296.0" type="curve"/>
      <point x="252.0" y="262.2"/>
      <point x="285.8" y="211.0"/>
      <point x="346.8" y="211.0" type="curve"/>
      <point x="469.6" y="312.2"/>
      <point x="531.4" y="396.2"/>
      <point x="559.8" y="489.4" type="curve" smooth="yes"/>
      <point x="563.6" y="502.0"/>
      <point x="561.8" y="509.0"/>
    </contour>
    <contour>
      <point x="40.0" y="24.6" type="curve" smooth="yes"/>
      <point x="64.0" y="0.6000000000000005"/>
      <point x="105.6" y="-10.0"/>
      <point x="145.0" y="-10.0" type="curve" smooth="yes"/>
      <point x="166.2" y="-10.0" type="line"/>
      <point x="190.2" y="82.2"/>
      <point x="227.0" y="146.0"/>
      <point x="292.2" y="197.0" type="curve"/>
      <point x="319.4" y="222.8"/>
      <point x="299.8" y="277.2"/>
      <point x="246.4" y="277.2" type="curve"/>
      <point x="111.0" y="185.6"/>
      <point x="50.4" y="109.4"/>
      <point x="36.0" y="51.0" type="curve" smooth="yes"/>
      <point x="32.0" y="37.6"/>
      <point x="33.8" y="30.8"/>
    </contour>
  </outline>
</glyph>
<glyph name="y" format="2">
  <advance width="600.0"/>
  <unicode hex="0079"/>
  <outline>
    <contour>
      <point x="176.2" y="522.8" type="curve" smooth="yes"/>
      <point x="157.6" y="541.4"/>
      <point x="105.8" y="550.0"/>
      <point x="64.2" y="550.0" type="curve" smooth="yes"/>
      <point x="43.0" y="550.0" type="line"/>
      <point x="55.2" y="404.8" type="line" smooth="yes"/>
      <point x="65.01140238318135" y="288.41602199761917"/>
      <point x="98.30134257715002" y="168.09865742284995"/>
      <point x="187.0" y="79.4" type="curve" smooth="yes"/>
      <point x="249.1217424292255" y="17.2782575707745"/>
      <point x="294.01509433962264" y="8.0"/>
      <point x="330.4" y="8.0" type="curve"/>
      <point x="355.8285714285714" y="8.0"/>
      <point x="374.4" y="30.0"/>
      <point x="374.2" y="112.8" type="curve"/>
      <point x="341.2909090909091" y="124.0"/>
      <point x="311.60371841229073" y="136.99628158770923"/>
      <point x="287.2" y="161.4" type="curve" smooth="yes"/>
      <point x="232.103264015185" y="216.496735984815"/>
      <point x="203.3689530767354" y="282.48864812180597"/>
      <point x="193.8" y="397.6" type="curve" smooth="yes"/>
      <point x="184.8" y="505.2" type="line" smooth="yes"/>
      <point x="183.8" y="514.2"/>
      <point x="181.8" y="517.2"/>
    </contour>
    <contour>
      <point x="547.0" y="507.2" type="curve" smooth="yes"/>
      <point x="522.0" y="532.2"/>
      <point x="482.6" y="550.0"/>
      <point x="441.0" y="550.0" type="curve" smooth="yes"/>
      <point x="419.8" y="550.0" type="line"/>
      <point x="409.2" y="435.2" type="line" smooth="yes"/>
      <point x="383.9144738333446" y="166.67537511277865"/>
      <point x="348.90921293572757" y="41.70921293572756"/>
      <point x="234.6" y="-72.6" type="curve" smooth="yes"/>
      <point x="209.8" y="-97.4"/>
      <point x="183.4" y="-120.8"/>
      <point x="118.4" y="-167.2" type="curve"/>
      <point x="118.4" y="-213.4"/>
      <point x="138.0" y="-250.0"/>
      <point x="176.4" y="-250.0" type="curve" smooth="yes"/>
      <point x="213.4" y="-250.0"/>
      <point x="258.2" y="-239.4"/>
      <point x="299.6" y="-198.0" type="curve" smooth="yes"/>
      <point x="437.3169100168971" y="-61.120359612094845"/>
      <point x="518.0613070948712" y="119.24490351823795"/>
      <point x="543.2" y="385.0" type="curve" smooth="yes"/>
      <point x="552.4" y="484.4" type="line" smooth="yes"/>
      <point x="553.4" y="494.4"/>
      <point x="552.4" y="501.8"/>
    </contour>
    <contour>
      <point x="66.0" y="-120.0" type="curve"/>
      <point x="66.0" y="-142.0" type="line" smooth="yes"/>
      <point x="66.0" y="-183.6"/>
      <point x="76.2" y="-220.2"/>
      <point x="98.6" y="-242.6" type="curve" smooth="yes"/>
      <point x="104.0" y="-248.0"/>
      <point x="107.2" y="-250.0"/>
      <point x="114.6" y="-250.0" type="curve"/>
      <point x="136.0" y="-250.0"/>
      <point x="155.2" y="-250.0"/>
      <point x="176.4" y="-250.0" type="curve" smooth="yes"/>
      <point x="231.8" y="-250.0"/>
      <point x="280.0" y="-180.4"/>
      <point x="281.8" y="-120.0" type="curve"/>
      <point x="227.8" y="-120.0"/>
      <point x="119.0" y="-120.0"/>
    </contour>
  </outline>
</glyph>
<glyph name="z" format="2">
  <advance width="600.0"/>
  <unicode hex="007A"/>
  <outline>
    <contour>
      <point x="56.0" y="540.0" type="curve"/>
      <point x="56.0" y="518.0" type="line" smooth="yes"/>
      <point x="56.0" y="476.2"/>
      <point x="66.2" y="439.8"/>
      <point x="88.6" y="417.4" type="curve" smooth="yes"/>
      <point x="94.0" y="412.0"/>
      <point x="97.2" y="410.0"/>
      <point x="104.6" y="410.0" type="curve"/>
      <point x="155.8" y="410.0"/>
      <point x="201.8" y="410.0"/>
      <point x="253.0" y="410.0" type="curve" smooth="yes"/>
      <point x="336.8" y="410.0"/>
      <point x="460.2" y="410.0"/>
      <point x="544.0" y="410.0" type="curve"/>
      <point x="544.0" y="455.4"/>
      <point x="524.2" y="503.8"/>
      <point x="495.4" y="532.6" type="curve" smooth="yes"/>
      <point x="490.0" y="538.0"/>
      <point x="486.8" y="540.0"/>
      <point x="479.4" y="540.0" type="curve" smooth="yes"/>
      <point x="348.4" y="540.0"/>
      <point x="187.0" y="540.0"/>
    </contour>
    <contour>
      <point x="540.0" y="423.0" type="curve" smooth="yes"/>
      <point x="508.4" y="454.6"/>
      <point x="489.4" y="477.0"/>
      <point x="438.8" y="477.0" type="curve"/>
      <point x="349.6" y="346.4"/>
      <point x="204.4" y="219.60000000000002"/>
      <point x="56.0" y="130.0" type="curve"/>
      <point x="56.0" y="91.6"/>
      <point x="80.2" y="76.0"/>
      <point x="101.4" y="76.0" type="curve" smooth="yes"/>
      <point x="133.4" y="76.0"/>
      <point x="148.0" y="80.0"/>
      <point x="176.6" y="92.6" type="curve" smooth="yes"/>
      <point x="348.0" y="175.2"/>
      <point x="544.0" y="364.4"/>
      <point x="544.0" y="410.0" type="curve" smooth="yes"/>
      <point x="544.0" y="416.0"/>
      <point x="543.0" y="420.0"/>
    </contour>
    <contour>
      <point x="544.0" y="0.0" type="curve"/>
      <point x="544.0" y="22.0" type="line" smooth="yes"/>
      <point x="544.0" y="45.400000000000006"/>
      <point x="524.2" y="93.80000000000001"/>
      <point x="495.4" y="122.60000000000001" type="curve" smooth="yes"/>
      <point x="490.0" y="128.0"/>
      <point x="486.8" y="130.0"/>
      <point x="479.4" y="130.0" type="curve" smooth="yes"/>
      <point x="348.4" y="130.0"/>
      <point x="187.0" y="130.0"/>
      <point x="56.0" y="130.0" type="curve"/>
      <point x="56.0" y="108.0" type="line" smooth="yes"/>
      <point x="56.0" y="66.2"/>
      <point x="66.2" y="29.8"/>
      <point x="88.6" y="7.4" type="curve" smooth="yes"/>
      <point x="94.0" y="2.0"/>
      <point x="97.2" y="0.0"/>
      <point x="104.6" y="0.0" type="curve"/>
      <point x="155.8" y="0.0"/>
      <point x="201.8" y="0.0"/>
      <point x="253.0" y="0.0" type="curve" smooth="yes"/>
      <point x="336.8" y="0.0"/>
      <point x="460.2" y="0.0"/>
    </contour>
  </outline>
</glyph>
<glyph name="f.ss01" format="2">
  <advance width="600.0"/>
  <outline>
    <contour>
      <point x="225.2" y="617.4" type="curve"/>
      <point x="277.0" y="647.0"/>
      <point x="337.2" y="652.0"/>
      <point x="400.0" y="652.0" type="curve" smooth="yes"/>
      <point x="463.8" y="652.0"/>
      <point x="519.0" y="638.6"/>
      <point x="548.0" y="625.0" type="curve"/>
      <point x="570.0" y="625.0" type="line"/>
      <point x="570.0" y="648.2" type="line"/>
      <point x="570.0" y="689.8"/>
      <point x="559.0" y="726.4"/>
      <point x="546.0" y="741.8" type="curve" smooth="yes"/>
      <point x="533.2" y="756.2"/>
      <point x="493.2" y="770.0"/>
      <point x="457.0" y="770.0" type="curve"/>
      <point x="383.0" y="770.0" type="line"/>
      <point x="318.8" y="770.0"/>
      <point x="271.2" y="759.0"/>
      <point x="219.8" y="707.6" type="curve" smooth="yes"/>
      <point x="195.2" y="683.0"/>
      <point x="193.0" y="639.8"/>
    </contour>
    <contour>
      <point x="290.0" y="22.8" type="line"/>
      <point x="290.0" y="217.4"/>
      <point x="290.0" y="353.8"/>
      <point x="290.0" y="540.0" type="curve" smooth="yes"/>
      <point x="290.0" y="579.6"/>
      <point x="273.4" y="672.0"/>
      <point x="283.4" y="727.4" type="curve"/>
      <point x="258.2" y="739.6"/>
      <point x="242.6" y="730.4"/>
      <point x="219.8" y="707.6" type="curve" smooth="yes"/>
      <point x="176.2" y="664.0"/>
      <point x="160.0" y="631.6"/>
      <point x="160.0" y="584.4" type="curve"/>
      <point x="160.0" y="447.8"/>
      <point x="160.0" y="259.6"/>
      <point x="160.0" y="71.4" type="curve"/>
      <point x="160.0" y="64.0"/>
      <point x="162.0" y="60.800000000000004"/>
      <point x="167.4" y="55.400000000000006" type="curve" smooth="yes"/>
      <point x="189.8" y="33.0"/>
      <point x="226.4" y="22.8"/>
      <point x="268.0" y="22.8" type="curve" smooth="yes"/>
    </contour>
    <contour>
      <point x="30.0" y="540.0" type="curve"/>
      <point x="30.0" y="518.0" type="line" smooth="yes"/>
      <point x="30.0" y="474.0"/>
      <point x="41.0" y="439.0"/>
      <point x="62.6" y="417.4" type="curve" smooth="yes"/>
      <point x="68.8" y="411.2"/>
      <point x="72.0" y="410.0"/>
      <point x="78.6" y="410.0" type="curve"/>
      <point x="125.8" y="410.0"/>
      <point x="185.8" y="410.0"/>
      <point x="233.0" y="410.0" type="curve"/>
      <point x="274.4" y="410.0"/>
      <point x="489.0" y="410.0"/>
      <point x="520.0" y="410.0" type="curve"/>
      <point x="520.0" y="432.0" type="line" smooth="yes"/>
      <point x="520.0" y="476.8"/>
      <point x="509.0" y="511.0"/>
      <point x="487.4" y="532.6" type="curve" smooth="yes"/>
      <point x="481.2" y="538.8"/>
      <point x="478.0" y="540.0"/>
      <point x="471.4" y="540.0" type="curve" smooth="yes"/>
      <point x="393.2" y="540.0"/>
      <point x="109.0" y="540.0"/>
    </contour>
    <contour>
      <point x="50.0" y="130.0" type="curve"/>
      <point x="50.0" y="108.0" type="line" smooth="yes"/>
      <point x="50.0" y="64.0"/>
      <point x="61.0" y="29.0"/>
      <point x="82.6" y="7.4" type="curve" smooth="yes"/>
      <point x="88.8" y="1.2"/>
      <point x="92.0" y="0.0"/>
      <point x="98.6" y="0.0" type="curve"/>
      <point x="149.8" y="0.0"/>
      <point x="201.8" y="0.0"/>
      <point x="253.0" y="0.0" type="curve"/>
      <point x="342.4" y="0.0"/>
      <point x="410.6" y="0.0"/>
      <point x="500.0" y="0.0" type="curve"/>
      <point x="500.0" y="22.0" type="line" smooth="yes"/>
      <point x="500.0" y="49.2"/>
      <point x="476.2" y="97.80000000000001"/>
      <point x="451.4" y="122.60000000000001" type="curve" smooth="yes"/>
      <point x="445.2" y="128.8"/>
      <point x="442.0" y="130.0"/>
      <point x="435.4" y="130.0" type="curve" smooth="yes"/>
      <point x="298.8" y="130.0"/>
      <point x="186.6" y="130.0"/>
    </contour>
  </outline>
</glyph>
<glyph name="g.ver02" format="2">
  <advance width="600.0"/>
  <outline>
    <contour>
      <point x="323.0" y="447.0" type="curve" smooth="yes"/>
      <point x="371.6" y="447.0"/>
      <point x="414.4" y="437.2"/>
      <point x="446.0" y="423.0" type="curve"/>
      <point x="480.2" y="472.4"/>
      <point x="480.2" y="505.8"/>
      <point x="460.4" y="525.6" type="curve" smooth="yes"/>
      <point x="438.4" y="547.6"/>
      <point x="375.8" y="560.0"/>
      <point x="315.0" y="560.0" type="curve" smooth="yes"/>
      <point x="165.2" y="560.0"/>
      <point x="64.0" y="493.8"/>
      <point x="64.0" y="374.0" type="curve" smooth="yes"/>
      <point x="64.0" y="320.0" type="line" smooth="yes"/>
      <point x="64.0" y="279.0"/>
      <point x="78.4" y="253.8"/>
      <point x="133.6" y="198.6" type="curve" smooth="yes"/>
      <point x="151.4" y="180.8"/>
      <point x="195.6" y="189.6"/>
      <point x="210.8" y="206.8" type="curve"/>
      <point x="194.4" y="232.0"/>
      <point x="190.8" y="245.8"/>
      <point x="190.8" y="278.4" type="curve" smooth="yes"/>
      <point x="190.8" y="342.0" type="line" smooth="yes"/>
      <point x="190.8" y="420.8"/>
      <point x="233.2" y="447.0"/>
    </contour>
    <contour>
      <point x="297.0" y="259.0" type="curve" smooth="yes"/>
      <point x="238.6" y="259.0"/>
      <point x="157.8" y="264.4"/>
      <point x="114.0" y="283.6" type="curve"/>
      <point x="102.4" y="254.4"/>
      <point x="109.4" y="223.8"/>
      <point x="133.6" y="198.6" type="curve" smooth="yes"/>
      <point x="183.4" y="148.2"/>
      <point x="238.2" y="145.0"/>
      <point x="309.0" y="145.0" type="curve" smooth="yes"/>
      <point x="458.0" y="145.0"/>
      <point x="536.0" y="213.8"/>
      <point x="536.0" y="327.0" type="curve" smooth="yes"/>
      <point x="536.0" y="381.0" type="line" smooth="yes"/>
      <point x="536.0" y="427.8"/>
      <point x="525.2" y="460.8"/>
      <point x="460.4" y="525.6" type="curve" smooth="yes"/>
      <point x="440.4" y="545.6"/>
      <point x="387.8" y="536.6"/>
      <point x="367.4" y="516.2" type="curve"/>
      <point x="395.6" y="492.8"/>
      <point x="414.0" y="473.4"/>
      <point x="414.0" y="426.0" type="curve" smooth="yes"/>
      <point x="414.0" y="350.0" type="line" smooth="yes"/>
      <point x="414.0" y="291.8"/>
      <point x="368.4" y="259.0"/>
    </contour>
    <contour>
      <point x="90.0" y="54.4" type="curve" smooth="yes"/>
      <point x="90.0" y="41.4" type="line" smooth="yes"/>
      <point x="90.0" y="-17.200000000000003"/>
      <point x="143.4" y="-53.0"/>
      <point x="227.0" y="-53.0" type="curve" smooth="yes"/>
      <point x="418.0" y="-53.0" type="line" smooth="yes"/>
      <point x="432.4" y="-53.0"/>
      <point x="441.6" y="-63.4"/>
      <point x="441.6" y="-77.6" type="curve" smooth="yes"/>
      <point x="441.6" y="-121.2" type="line" smooth="yes"/>
      <point x="441.6" y="-153.4"/>
      <point x="440.2" y="-177.0"/>
      <point x="435.2" y="-203.0" type="curve"/>
      <point x="454.4" y="-204.6"/>
      <point x="507.4" y="-193.0"/>
      <point x="520.2" y="-180.2" type="curve" smooth="yes"/>
      <point x="556.8" y="-143.6"/>
      <point x="570.0" y="-115.19999999999999"/>
      <point x="570.0" y="-70.0" type="curve" smooth="yes"/>
      <point x="570.0" y="-35.0" type="line" smooth="yes"/>
      <point x="570.0" y="22.0"/>
      <point x="523.4" y="65.0"/>
      <point x="463.0" y="65.0" type="curve" smooth="yes"/>
      <point x="240.6" y="65.0" type="line" smooth="yes"/>
      <point x="224.8" y="65.0"/>
      <point x="220.0" y="69.80000000000001"/>
      <point x="220.0" y="85.6" type="curve" smooth="yes"/>
      <point x="220.0" y="116.6" type="line" smooth="yes"/>
      <point x="220.0" y="132.6"/>
      <point x="223.6" y="151.0"/>
      <point x="227.0" y="166.4" type="curve"/>
      <point x="227.0" y="172.6"/>
      <point x="226.2" y="178.6"/>
      <point x="224.0" y="183.4" type="curve" smooth="yes"/>
      <point x="176.6" y="183.4"/>
      <point x="90.0" y="109.8"/>
    </contour>
    <contour>
      <point x="545.0" y="-99.4" type="curve"/>
      <point x="465.0" y="-154.6"/>
      <point x="411.4" y="-160.0"/>
      <point x="333.4" y="-160.0" type="curve"/>
      <point x="258.0" y="-160.0" type="line"/>
      <point x="198.0" y="-160.0"/>
      <point x="173.0" y="-140.4"/>
      <point x="173.0" y="-93.0" type="curve" smooth="yes"/>
      <point x="173.0" y="-84.0" type="line" smooth="yes"/>
      <point x="173.0" y="-65.0"/>
      <point x="183.8" y="-44.400000000000006"/>
      <point x="203.8" y="-34.2" type="curve"/>
      <point x="203.8" y="-25.6"/>
      <point x="197.6" y="-19.200000000000003"/>
      <point x="190.2" y="-19.200000000000003" type="curve"/>
      <point x="106.6" y="-19.200000000000003"/>
      <point x="55.0" y="-66.2"/>
      <point x="55.0" y="-129.2" type="curve" smooth="yes"/>
      <point x="55.0" y="-139.0" type="line" smooth="yes"/>
      <point x="55.0" y="-203.0"/>
      <point x="120.8" y="-250.0"/>
      <point x="213.0" y="-250.0" type="curve"/>
      <point x="282.0" y="-250.0" type="line"/>
      <point x="384.4" y="-250.0"/>
      <point x="467.4" y="-233.0"/>
      <point x="520.2" y="-180.2" type="curve"/>
      <point x="549.8" y="-150.6"/>
      <point x="560.4" y="-114.8"/>
    </contour>
    <contour>
      <point x="449.4" y="505.4" type="curve" smooth="yes"/>
      <point x="529.2" y="567.2" type="line" smooth="yes"/>
      <point x="555.4" y="587.8"/>
      <point x="570.0" y="605.6"/>
      <point x="570.0" y="631.8" type="curve" smooth="yes"/>
      <point x="570.0" y="638.2"/>
      <point x="570.0" y="647.6"/>
      <point x="570.0" y="656.4" type="curve" smooth="yes"/>
      <point x="570.0" y="663.8"/>
      <point x="568.0" y="667.0"/>
      <point x="562.6" y="672.4" type="curve" smooth="yes"/>
      <point x="540.2" y="694.8"/>
      <point x="495.8" y="705.0"/>
      <point x="454.0" y="705.0" type="curve" smooth="yes"/>
      <point x="440.0" y="705.0" type="line"/>
      <point x="440.0" y="693.0"/>
      <point x="440.0" y="679.8"/>
      <point x="440.0" y="667.8" type="curve" smooth="yes"/>
      <point x="440.0" y="648.6"/>
      <point x="437.0" y="636.4"/>
      <point x="432.6" y="619.4" type="curve" smooth="yes"/>
      <point x="405.4" y="513.0" type="line"/>
      <point x="417.4" y="502.6"/>
      <point x="438.4" y="497.6"/>
    </contour>
  </outline>
</glyph>
<glyph name="r.ss01" format="2">
  <advance width="600.0"/>
  <outline>
    <contour>
      <point x="50.0" y="540.0" type="curve"/>
      <point x="50.0" y="518.0" type="line" smooth="yes"/>
      <point x="50.0" y="476.4"/>
      <point x="60.2" y="439.8"/>
      <point x="82.6" y="417.4" type="curve" smooth="yes"/>
      <point x="88.0" y="412.0"/>
      <point x="91.2" y="410.0"/>
      <point x="98.6" y="410.0" type="curve"/>
      <point x="149.8" y="410.0"/>
      <point x="177.6" y="410.0"/>
      <point x="228.8" y="410.0" type="curve"/>
      <point x="228.8" y="432.0" type="line" smooth="yes"/>
      <point x="228.8" y="469.2"/>
      <point x="218.2" y="540.0"/>
      <point x="170.6" y="540.0" type="curve" smooth="yes"/>
      <point x="119.4" y="540.0"/>
      <point x="101.2" y="540.0"/>
    </contour>
    <contour>
      <point x="280.0" y="42.8" type="line"/>
      <point x="280.0" y="158.4"/>
      <point x="280.0" y="273.8"/>
      <point x="280.0" y="389.4" type="curve"/>
      <point x="280.0" y="442.6"/>
      <point x="225.2" y="540.0"/>
      <point x="172.0" y="540.0" type="curve" smooth="yes"/>
      <point x="150.0" y="540.0" type="line"/>
      <point x="150.0" y="466.0"/>
      <point x="150.0" y="307.4"/>
      <point x="150.0" y="236.4" type="curve" smooth="yes"/>
      <point x="150.0" y="188.2"/>
      <point x="150.0" y="139.2"/>
      <point x="150.0" y="91.4" type="curve"/>
      <point x="150.0" y="84.0"/>
      <point x="152.0" y="80.80000000000001"/>
      <point x="157.4" y="75.4" type="curve" smooth="yes"/>
      <point x="179.8" y="53.0"/>
      <point x="216.4" y="42.8"/>
      <point x="258.0" y="42.8" type="curve" smooth="yes"/>
    </contour>
    <contour>
      <point x="50.0" y="130.0" type="curve"/>
      <point x="50.0" y="108.0" type="line" smooth="yes"/>
      <point x="50.0" y="66.4"/>
      <point x="60.2" y="29.8"/>
      <point x="82.6" y="7.4" type="curve" smooth="yes"/>
      <point x="88.0" y="2.0"/>
      <point x="91.2" y="0.0"/>
      <point x="98.6" y="0.0" type="curve"/>
      <point x="149.8" y="0.0"/>
      <point x="201.8" y="0.0"/>
      <point x="253.0" y="0.0" type="curve"/>
      <point x="323.2" y="0.0"/>
      <point x="369.8" y="0.0"/>
      <point x="440.0" y="0.0" type="curve"/>
      <point x="440.0" y="22.0" type="line" smooth="yes"/>
      <point x="440.0" y="63.6"/>
      <point x="429.8" y="100.2"/>
      <point x="407.4" y="122.60000000000001" type="curve" smooth="yes"/>
      <point x="402.0" y="128.0"/>
      <point x="398.8" y="130.0"/>
      <point x="391.4" y="130.0" type="curve"/>
      <point x="269.2" y="130.0"/>
      <point x="172.2" y="130.0"/>
    </contour>
    <contour>
      <point x="456.2" y="560.0" type="curve" smooth="yes"/>
      <point x="388.2" y="560.0"/>
      <point x="298.4" y="487.0"/>
      <point x="260.0" y="424.4" type="curve" smooth="yes"/>
      <point x="239.2" y="388.8"/>
      <point x="235.4" y="364.8"/>
      <point x="236.0" y="320.6" type="curve"/>
      <point x="298.6" y="397.6"/>
      <point x="351.6" y="424.4"/>
      <point x="412.0" y="424.4" type="curve" smooth="yes"/>
      <point x="462.0" y="424.4"/>
      <point x="494.8" y="414.2"/>
      <point x="525.4" y="392.8" type="curve"/>
      <point x="538.8" y="399.6"/>
      <point x="545.0" y="414.4"/>
      <point x="545.0" y="431.4" type="curve" smooth="yes"/>
      <point x="545.0" y="477.2"/>
      <point x="499.8" y="560.0"/>
    </contour>
    <contour>
      <point x="545.0" y="280.0" type="line"/>
      <point x="545.0" y="327.4"/>
      <point x="545.0" y="384.0"/>
      <point x="545.0" y="431.4" type="curve" smooth="yes"/>
      <point x="545.0" y="469.0"/>
      <point x="488.6" y="492.0"/>
      <point x="437.0" y="492.0" type="curve" smooth="yes"/>
      <point x="415.0" y="492.0" type="line"/>
      <point x="415.0" y="473.6"/>
      <point x="415.0" y="454.6"/>
      <point x="415.0" y="437.4" type="curve" smooth="yes"/>
      <point x="415.0" y="408.6"/>
      <point x="415.0" y="358.4"/>
      <point x="415.0" y="328.6" type="curve" smooth="yes"/>
      <point x="415.0" y="321.2"/>
      <point x="417.0" y="318.0"/>
      <point x="422.4" y="312.6" type="curve" smooth="yes"/>
      <point x="444.8" y="290.2"/>
      <point x="481.4" y="280.0"/>
      <point x="523.0" y="280.0" type="curve" smooth="yes"/>
    </contour>
  </outline>
</glyph>
<glyph name="r.ss02" format="2">
  <advance width="600.0"/>
  <outline>
    <contour>
      <point x="50.0" y="540.0" type="curve"/>
      <point x="50.0" y="518.0" type="line" smooth="yes"/>
      <point x="50.0" y="476.4"/>
      <point x="60.2" y="439.8"/>
      <point x="82.6" y="417.4" type="curve" smooth="yes"/>
      <point x="88.0" y="412.0"/>
      <point x="91.2" y="410.0"/>
      <point x="98.6" y="410.0" type="curve"/>
      <point x="154.6" y="410.0"/>
      <point x="185.8" y="410.0"/>
      <point x="241.8" y="410.0" type="curve"/>
      <point x="241.8" y="432.0" type="line" smooth="yes"/>
      <point x="241.8" y="469.2"/>
      <point x="231.2" y="540.0"/>
      <point x="183.6" y="540.0" type="curve" smooth="yes"/>
      <point x="127.6" y="540.0"/>
      <point x="106.0" y="540.0"/>
    </contour>
    <contour>
      <point x="293.0" y="-10.0" type="line"/>
      <point x="293.0" y="123.2"/>
      <point x="293.0" y="256.2"/>
      <point x="293.0" y="389.4" type="curve"/>
      <point x="293.0" y="442.6"/>
      <point x="238.2" y="540.0"/>
      <point x="185.0" y="540.0" type="curve" smooth="yes"/>
      <point x="155.0" y="540.0" type="line"/>
      <point x="155.0" y="466.0"/>
      <point x="155.0" y="307.4"/>
      <point x="155.0" y="236.4" type="curve" smooth="yes"/>
      <point x="155.0" y="170.6"/>
      <point x="155.0" y="104.0"/>
      <point x="155.0" y="38.6" type="curve"/>
      <point x="155.0" y="31.200000000000003"/>
      <point x="157.0" y="28.0"/>
      <point x="162.4" y="22.6" type="curve" smooth="yes"/>
      <point x="184.8" y="0.20000000000000018"/>
      <point x="229.4" y="-10.0"/>
      <point x="271.0" y="-10.0" type="curve" smooth="yes"/>
    </contour>
    <contour>
      <point x="424.2" y="560.0" type="curve" smooth="yes"/>
      <point x="372.8" y="560.0"/>
      <point x="308.2" y="484.8"/>
      <point x="273.0" y="424.4" type="curve" smooth="yes"/>
      <point x="252.4" y="388.2"/>
      <point x="248.4" y="363.8"/>
      <point x="249.0" y="319.2" type="curve"/>
      <point x="306.6" y="396.6"/>
      <point x="356.0" y="424.4"/>
      <point x="412.0" y="424.4" type="curve" smooth="yes"/>
      <point x="462.0" y="424.4"/>
      <point x="494.8" y="414.2"/>
      <point x="525.4" y="392.8" type="curve"/>
      <point x="538.8" y="399.6"/>
      <point x="545.0" y="414.4"/>
      <point x="545.0" y="431.4" type="curve" smooth="yes"/>
      <point x="545.0" y="477.2"/>
      <point x="483.8" y="560.0"/>
    </contour>
    <contour>
      <point x="545.0" y="250.0" type="line"/>
      <point x="545.0" y="307.6"/>
      <point x="545.0" y="374.6"/>
      <point x="545.0" y="431.4" type="curve" smooth="yes"/>
      <point x="545.0" y="469.0"/>
      <point x="488.6" y="492.0"/>
      <point x="437.0" y="492.0" type="curve" smooth="yes"/>
      <point x="415.0" y="492.0" type="line"/>
      <point x="415.0" y="473.6"/>
      <point x="415.0" y="454.6"/>
      <point x="415.0" y="437.4" type="curve" smooth="yes"/>
      <point x="415.0" y="400.6"/>
      <point x="415.0" y="337.2"/>
      <point x="415.0" y="298.6" type="curve" smooth="yes"/>
      <point x="415.0" y="291.2"/>
      <point x="417.0" y="288.0"/>
      <point x="422.4" y="282.6" type="curve" smooth="yes"/>
      <point x="444.8" y="260.2"/>
      <point x="481.4" y="250.0"/>
      <point x="523.0" y="250.0" type="curve" smooth="yes"/>
    </contour>
  </outline>
</glyph>
<glyph name="s.alt1" format="2">
  <advance width="600.0"/>
  <outline>
    <contour>
      <point x="394.8" y="272.2" type="curve" smooth="yes"/>
      <point x="301.2" y="291.6" type="line" smooth="yes"/>
      <point x="225.8" y="307.2"/>
      <point x="210.0" y="319.0"/>
      <point x="210.0" y="341.0" type="curve" smooth="yes"/>
      <point x="210.0" y="357.2"/>
      <point x="215.2" y="388.8"/>
      <point x="221.6" y="411.2" type="curve"/>
      <point x="139.8" y="411.2"/>
      <point x="80.0" y="374.2"/>
      <point x="80.0" y="333.4" type="curve"/>
      <point x="80.0" y="280.4"/>
      <point x="140.6" y="239.6"/>
      <point x="258.6" y="213.4" type="curve" smooth="yes"/>
      <point x="350.8" y="193.0" type="line" smooth="yes"/>
      <point x="432.6" y="175.0"/>
      <point x="461.0" y="160.4"/>
      <point x="498.8" y="115.2" type="curve"/>
      <point x="526.4" y="115.2"/>
      <point x="544.8" y="126.0"/>
      <point x="544.8" y="155.6" type="curve"/>
      <point x="544.8" y="214.0"/>
      <point x="499.4" y="250.8"/>
    </contour>
    <contour>
      <point x="300.0" y="-20.0" type="curve" smooth="yes"/>
      <point x="442.4" y="-20.0"/>
      <point x="544.8" y="31.6"/>
      <point x="544.8" y="103.4" type="curve" smooth="yes"/>
      <point x="544.8" y="155.6" type="line"/>
      <point x="544.8" y="182.0"/>
      <point x="521.8" y="199.8"/>
      <point x="497.6" y="197.2" type="curve"/>
      <point x="457.4" y="142.0"/>
      <point x="395.2" y="110.0"/>
      <point x="300.0" y="110.0" type="curve" smooth="yes"/>
      <point x="199.2" y="110.0"/>
      <point x="158.6" y="120.0"/>
      <point x="97.6" y="160.0" type="curve"/>
      <point x="55.4" y="160.0" type="line"/>
      <point x="55.4" y="131.8"/>
      <point x="55.4" y="102.4"/>
      <point x="55.4" y="73.8" type="curve"/>
      <point x="53.8" y="15.0"/>
      <point x="144.8" y="-20.0"/>
    </contour>
    <contour>
      <point x="380.0" y="560.0" type="curve" smooth="yes"/>
      <point x="237.6" y="560.0"/>
      <point x="80.0" y="464.4"/>
      <point x="80.0" y="378.4" type="curve" smooth="yes"/>
      <point x="80.0" y="333.4" type="line" smooth="yes"/>
      <point x="80.0" y="296.6"/>
      <point x="141.0" y="275.4"/>
      <point x="212.8" y="275.4" type="curve"/>
      <point x="210.6" y="291.2"/>
      <point x="210.0" y="321.8"/>
      <point x="210.0" y="341.0" type="curve" smooth="yes"/>
      <point x="210.0" y="379.4"/>
      <point x="304.2" y="430.0"/>
      <point x="379.8" y="430.0" type="curve" smooth="yes"/>
      <point x="398.8" y="430.0"/>
      <point x="420.0" y="424.0"/>
      <point x="448.0" y="410.0" type="curve"/>
      <point x="496.4" y="458.4"/>
      <point x="496.0" y="502.8"/>
      <point x="477.6" y="521.2" type="curve"/>
      <point x="452.2" y="547.0"/>
      <point x="419.2" y="560.0"/>
    </contour>
    <contour>
      <point x="520.0" y="420.0" type="curve"/>
      <point x="520.0" y="459.2"/>
      <point x="505.2" y="493.6"/>
      <point x="477.6" y="521.2" type="curve"/>
      <point x="455.8" y="543.2"/>
      <point x="406.0" y="530.6"/>
      <point x="371.0" y="496.8" type="curve"/>
      <point x="381.2" y="479.0"/>
      <point x="390.0" y="445.2"/>
      <point x="390.0" y="430.6" type="curve"/>
      <point x="390.0" y="424.2"/>
      <point x="390.0" y="418.4"/>
      <point x="390.0" y="412.0" type="curve"/>
      <point x="390.0" y="369.0"/>
      <point x="417.0" y="350.0"/>
      <point x="477.6" y="350.0" type="curve" smooth="yes"/>
      <point x="520.0" y="350.0" type="line"/>
      <point x="520.0" y="374.6"/>
      <point x="520.0" y="397.8"/>
    </contour>
  </outline>
</glyph>
